<?xml version="1.0" encoding="UTF-8"?>
<svg version="1.1" xmlns="http://www.w3.org/2000/svg" width="512" height="512">
<path d="M0 0 C1.54136879 0.55698074 1.54136879 0.55698074 3.11387634 1.12521362 C6.48688454 2.34642495 9.8546704 3.58141881 13.22265625 4.81640625 C15.59420309 5.67767034 17.96611662 6.5379253 20.33837891 7.3972168 C25.23787736 9.17322937 30.13550669 10.95425927 35.03173828 12.73925781 C43.98021828 15.99934315 52.94190752 19.2223337 61.9050293 22.44189453 C66.05851873 23.93402157 70.20957499 25.43263403 74.35864258 26.93701172 C83.21112952 30.14326463 92.06603173 33.3279502 100.98446655 36.34687805 C104.61511471 37.57660103 108.23927837 38.8248506 111.86334229 40.07382202 C113.5318766 40.64221613 115.20381647 41.20073137 116.8793335 41.74819946 C126.45045838 44.87607496 133.36393405 47.80871623 139.28515625 56.37890625 C140.32551839 57.70359991 141.36966196 59.02533446 142.41796875 60.34375 C143.41877098 61.66539619 144.41608356 62.98969104 145.41015625 64.31640625 C146.53314408 65.80001692 147.65686783 67.28307078 148.78125 68.765625 C149.35472168 69.52278809 149.92819336 70.27995117 150.51904297 71.06005859 C153.4737795 74.93952881 156.47331644 78.78388178 159.47265625 82.62890625 C163.4255345 87.70063543 167.36984522 92.77810825 171.28515625 97.87890625 C175.26414624 103.06206426 179.27053543 108.22330487 183.28515625 113.37890625 C189.76742424 121.70442785 196.20589726 130.06227203 202.62890625 138.43359375 C203.42296875 139.46742188 204.21703125 140.50125 205.03515625 141.56640625 C205.43404053 142.08581787 205.8329248 142.60522949 206.24389648 143.14038086 C208.76733095 146.4210909 211.30508647 149.69026287 213.8515625 152.953125 C214.4712793 153.74759033 215.09099609 154.54205566 215.72949219 155.3605957 C216.94370239 156.91612402 218.15913025 158.47070289 219.37597656 160.02416992 C219.94026367 160.74709229 220.50455078 161.47001465 221.0859375 162.21484375 C221.83097534 163.16689697 221.83097534 163.16689697 222.59106445 164.13818359 C223.15011475 164.87762207 223.70916504 165.61706055 224.28515625 166.37890625 C224.69645405 166.86816023 225.10775185 167.35741421 225.53151321 167.86149406 C228.95985888 172.17524775 229.96160273 175.45487651 229.65014648 180.98730469 C229.61836257 182.13300241 229.61836257 182.13300241 229.58593655 183.30184555 C229.53521847 185.03249617 229.47274372 186.76282843 229.40067673 188.49272156 C229.27607059 191.60590411 229.19333308 194.71839264 229.11721802 197.83312988 C228.94323711 204.75300576 228.73035118 211.67132942 228.51037145 218.58987904 C228.3996937 222.08523655 228.29181185 225.58068071 228.18345642 229.07611084 C228.00135418 234.93589623 227.81691577 240.7956046 227.63110352 246.65527344 C227.41754493 253.39105282 227.20805008 260.12694964 227.00064188 266.862921 C226.82097128 272.69451833 226.63907539 278.52604327 226.45537657 284.3575151 C226.34631891 287.81956956 226.23798008 291.28164202 226.13167 294.74378204 C226.01246851 298.60434494 225.88962215 302.46477598 225.76586914 306.32519531 C225.73206146 307.44347717 225.69825378 308.56175903 225.66342163 309.71392822 C225.55793022 312.9368067 225.42713642 316.15743861 225.28515625 319.37890625 C225.23862349 320.60358864 225.19209072 321.82827103 225.14414787 323.090065 C225.08126642 324.32046257 225.01838497 325.55086014 224.95359802 326.81854248 C224.87615183 328.48616701 224.87615183 328.48616701 224.79714108 330.18748093 C223.84892214 336.09814427 220.45816599 340.4598248 216.97265625 345.19140625 C216.24933105 346.22257568 215.52600586 347.25374512 214.78076172 348.31616211 C212.64117442 351.35634221 210.46619207 354.36839028 208.28515625 357.37890625 C207.15559344 358.97556276 206.02898112 360.57431349 204.90625 362.17578125 C202.94528864 364.97110752 200.97364857 367.75823532 198.9921875 370.5390625 C196.04462435 374.69551015 193.21929321 378.92663414 190.40893555 383.17651367 C186.39645561 389.23616134 182.31259578 395.24633264 178.22265625 401.25390625 C177.49618896 402.3210083 176.76972168 403.38811035 176.02124023 404.48754883 C174.90134188 406.13218136 173.78144186 407.77681277 172.66130066 409.42127991 C169.36769995 414.25661339 166.07832711 419.09481227 162.78979492 423.93359375 C160.67999488 427.03722257 158.56855965 430.13973439 156.45703125 433.2421875 C153.62702932 437.40149316 150.80516869 441.5661776 147.98828125 445.734375 C147.3020166 446.74733643 146.61575195 447.76029785 145.90869141 448.80395508 C144.60885741 450.72258374 143.31151909 452.64290636 142.01708984 454.56518555 C141.43781738 455.41894775 140.85854492 456.27270996 140.26171875 457.15234375 C139.75721191 457.89919434 139.25270508 458.64604492 138.73291016 459.41552734 C135.45003237 463.86761894 132.85334229 465.05924735 127.44873047 466.62109375 C126.75164537 466.82546051 126.05456028 467.02982727 125.33635139 467.24038696 C123.00677033 467.92083655 120.67341267 468.58727312 118.33984375 469.25390625 C116.68154933 469.73545411 115.02351423 470.21789576 113.36572266 470.70117188 C108.89498373 472.00187759 104.42089459 473.29067765 99.94600677 474.57702637 C95.30223005 475.91369217 90.66120177 477.25982734 86.02001953 478.60546875 C80.35042749 480.24885396 74.68062122 481.89147072 69.00949097 483.52954102 C57.65495628 486.81076121 46.31307625 490.13147968 34.98431015 493.50057983 C32.6905956 494.18235852 30.39643479 494.86261119 28.1020813 495.54223633 C27.36526564 495.76049576 26.62844997 495.97875519 25.86930656 496.20362854 C24.41384387 496.63470258 22.95836546 497.06572356 21.50287056 497.49668884 C17.99770975 498.5352272 14.49374847 499.5775165 10.99212646 500.62792969 C7.13222965 501.78564563 3.26756082 502.92658027 -0.59765625 504.06640625 C-1.71793213 504.40583252 -2.83820801 504.74525879 -3.99243164 505.0949707 C-15.80391103 508.54857145 -23.85702347 506.78823098 -35.37109375 503.3046875 C-36.84528194 502.86762376 -38.31977272 502.43157959 -39.79454041 501.99647522 C-43.7767159 500.81880906 -47.75490963 499.6281977 -51.73243332 498.43492889 C-55.89516206 497.18812335 -60.06100506 495.95182462 -64.22680664 494.71533203 C-65.06824124 494.46556107 -65.90967585 494.2157901 -66.77660847 493.95845032 C-68.49412773 493.44862693 -70.21165741 492.93883863 -71.92919731 492.42908478 C-74.5500564 491.65066432 -77.17044931 490.8706896 -79.79078674 490.09051514 C-91.17717889 486.70366884 -102.58128288 483.38370915 -114.00185776 480.11405754 C-116.52982012 479.38993563 -119.05725708 478.66401067 -121.58450317 477.93739319 C-122.40382891 477.70185069 -123.22315464 477.46630819 -124.06730843 477.22362804 C-125.69872402 476.75458912 -127.3301265 476.28550455 -128.96151543 475.81637287 C-132.94534548 474.67167907 -136.93045087 473.53182925 -140.91845703 472.40176392 C-144.65965929 471.34150021 -148.3972021 470.26920213 -152.13235664 469.18783379 C-153.50055604 468.79421445 -154.87008932 468.40519766 -156.24101067 468.02116585 C-158.11128677 467.49672842 -159.97657634 466.95460394 -161.84155273 466.41162109 C-162.88552719 466.1137973 -163.92950165 465.81597351 -165.00511169 465.50912476 C-169.52904484 463.62221016 -171.94985541 460.28236296 -174.5703125 456.2734375 C-175.10132568 455.467854 -175.63233887 454.66227051 -176.17944336 453.83227539 C-176.74800049 452.96078857 -177.31655762 452.08930176 -177.90234375 451.19140625 C-179.15646751 449.28964891 -180.41172476 447.38863869 -181.66796875 445.48828125 C-182.32732422 444.48990234 -182.98667969 443.49152344 -183.66601562 442.46289062 C-187.12133764 437.26179104 -190.63609296 432.10143119 -194.15234375 426.94140625 C-194.8693042 425.88864502 -195.58626465 424.83588379 -196.32495117 423.7512207 C-198.45393986 420.62644955 -200.58420002 417.50254908 -202.71484375 414.37890625 C-203.98700964 412.51304161 -205.25914616 410.64715694 -206.53125 408.78125 C-208.37227527 406.08107961 -210.21342119 403.38099187 -212.05493164 400.68115234 C-218.16265066 391.72573646 -224.25779036 382.76178479 -230.3515625 373.796875 C-232.96424401 369.95323561 -235.57786252 366.11023797 -238.19299316 362.26826477 C-239.3503073 360.56800921 -240.50745157 358.86763816 -241.66455078 357.16723633 C-243.11181574 355.04054947 -244.55938618 352.91407045 -246.00732422 350.7878418 C-247.31441723 348.86676282 -248.61361359 346.94028072 -249.90380859 345.0078125 C-251.65129666 342.40271707 -251.65129666 342.40271707 -253.49853516 340.15625 C-256.90354323 335.757988 -258.05535842 332.48925119 -258.34568787 326.90374756 C-258.41399748 325.66104851 -258.48230709 324.41834946 -258.55268669 323.13799286 C-258.60619852 321.89749428 -258.65971035 320.6569957 -258.71484375 319.37890625 C-258.7630533 318.30088997 -258.81126286 317.22287369 -258.8609333 316.11219025 C-258.9912225 312.85021785 -259.09690792 309.58827289 -259.19555664 306.32519531 C-259.23471695 305.10360718 -259.27387726 303.88201904 -259.31422424 302.62341309 C-259.41956738 299.31741511 -259.52243488 296.01135273 -259.62395406 292.70523548 C-259.7316867 289.2116197 -259.84220416 285.71809171 -259.95225525 282.22454834 C-260.13661065 276.35776823 -260.31861922 270.49091878 -260.49926758 264.62402344 C-260.70663664 257.8904668 -260.91803816 251.15704576 -261.13155562 244.4236815 C-261.31625554 238.59562976 -261.49871359 232.76751082 -261.67938226 226.93933272 C-261.78664329 223.47925476 -261.89461266 220.0192034 -262.00462532 216.55921173 C-262.27004176 208.16640673 -262.51547882 199.77355738 -262.71484375 191.37890625 C-262.73828039 190.41458427 -262.76171703 189.4502623 -262.78586388 188.45671844 C-262.84092579 185.92030892 -262.87861172 183.38448439 -262.90722656 180.84765625 C-262.92282151 180.14087864 -262.93841646 179.43410103 -262.95448399 178.70590591 C-262.97999222 172.82271024 -261.38496941 169.324649 -257.40234375 165.12890625 C-256.58419189 164.15800049 -256.58419189 164.15800049 -255.74951172 163.16748047 C-254.63377159 161.84506199 -253.50136413 160.53651069 -252.35205078 159.24316406 C-249.88243778 156.43106074 -247.62406949 153.46666133 -245.33984375 150.50390625 C-244.43903779 149.36076569 -243.53665592 148.21886545 -242.6328125 147.078125 C-233.55691186 135.5928598 -224.62555856 123.99253789 -215.71484375 112.37890625 C-209.47251034 104.24306505 -203.19634892 96.13482441 -196.89648438 88.04345703 C-192.60988112 82.53561594 -188.34269643 77.01349269 -184.09375 71.4765625 C-182.41762115 69.29401706 -180.73833656 67.11422208 -179.0546875 64.9375 C-178.61092773 64.36298096 -178.16716797 63.78846191 -177.70996094 63.1965332 C-176.48704228 61.61354309 -175.26309071 60.03135108 -174.0390625 58.44921875 C-171.84024244 55.67430813 -171.84024244 55.67430813 -170.73400879 53.68803406 C-167.29058978 47.99841355 -163.20024726 46.42416101 -157.046875 44.390625 C-156.08072266 44.05017151 -155.11457031 43.70971802 -154.11914062 43.35894775 C-150.9289049 42.23998731 -147.72851248 41.15364975 -144.52734375 40.06640625 C-142.27282269 39.28118912 -140.01917261 38.49346717 -137.76635742 37.70336914 C-133.08193835 36.06267194 -128.39394668 34.43284382 -123.703125 32.81054688 C-113.97483756 29.4371146 -104.29382663 25.93417873 -94.61187744 22.43048096 C-91.5279178 21.31661359 -88.44183181 20.20885351 -85.35498047 19.10302734 C-75.80433538 15.67904386 -66.26687433 12.22618372 -56.76295471 8.67424011 C-52.4327836 7.05685861 -48.09778704 5.4526325 -43.76254272 3.84890747 C-41.71146152 3.08557078 -39.66289762 2.31543085 -37.61709595 1.53805542 C-34.78983296 0.46402431 -31.9548259 -0.58656226 -29.1171875 -1.6328125 C-28.29445343 -1.95263092 -27.47171936 -2.27244934 -26.62405396 -2.60195923 C-16.95590457 -6.10628155 -9.33598057 -3.4569603 0 0 Z " fill="#36FEC0" transform="translate(272.71484375,4.62109375)"/>
<path d="M0 0 C3.94397612 2.44758518 7.64224853 5.16304669 11.34375 7.9609375 C13.05539821 9.23907358 14.76765197 10.51639907 16.48046875 11.79296875 C17.77863525 12.76290771 17.77863525 12.76290771 19.10302734 13.75244141 C22.92555188 16.59100763 26.78905324 19.37120794 30.65625 22.1484375 C36.85331849 26.60790858 43.0160204 31.11104136 49.15625 35.6484375 C58.27373366 42.38396809 67.45565769 49.02707387 76.65625 55.6484375 C86.66175398 62.84906958 96.63313478 70.09094536 106.54833984 77.41552734 C114.12116824 83.00407317 121.74866071 88.51497102 129.38720703 94.01318359 C131.73824527 95.70752985 134.08630225 97.40593622 136.43359375 99.10546875 C144.13400383 104.6796403 151.84230327 110.2340407 159.65625 115.6484375 C158.26074243 124.32874772 155.55451879 132.52464326 152.7734375 140.8359375 C152.28159994 142.32072885 151.79034705 143.80571398 151.29963684 145.2908783 C150.25762463 148.44146397 149.21227241 151.59091191 148.16415405 154.73947144 C145.67873215 162.20692933 143.21145174 169.68038785 140.74333 177.1535778 C140.19236594 178.82161131 139.64119377 180.48957609 139.08981514 182.15747261 C134.42334178 196.27394992 129.8512032 210.41779906 125.34375 224.5859375 C116.58999508 251.98590209 107.61081764 279.31344156 98.65625 306.6484375 C32.65625 306.6484375 -33.34375 306.6484375 -101.34375 306.6484375 C-125.99677792 231.61748298 -125.99677792 231.61748298 -136.12890625 199.75390625 C-139.42424257 189.42188389 -142.8127482 179.12143134 -146.21484375 168.82421875 C-146.72684929 167.27308877 -147.2388173 165.72194641 -147.75074768 164.17079163 C-150.02847416 157.27141222 -152.30933408 150.37313639 -154.60395145 143.4793539 C-155.5484617 140.63801661 -156.48822856 137.79512588 -157.42688179 134.95184898 C-157.8678383 133.6198912 -158.31093275 132.2886391 -158.75626945 130.95813942 C-159.36896659 129.1270525 -159.97374452 127.29332143 -160.578125 125.45947266 C-160.92069336 124.42891754 -161.26326172 123.39836243 -161.61621094 122.33657837 C-162.34375 119.6484375 -162.34375 119.6484375 -162.34375 115.6484375 C-159.94498612 113.6643127 -157.62070459 111.9756934 -155.03125 110.2734375 C-153.45953814 109.20387637 -151.88927757 108.13218016 -150.3203125 107.05859375 C-149.49950195 106.50059082 -148.67869141 105.94258789 -147.83300781 105.36767578 C-143.78890291 102.57456214 -139.84988974 99.64337711 -135.90625 96.7109375 C-126.03663632 89.40312526 -116.08181901 82.21727122 -106.11425781 75.04394531 C-96.85222805 68.37609456 -87.62790107 61.66166711 -78.44946289 54.87915039 C-72.36830095 50.39027387 -66.24779491 45.95852937 -60.11328125 41.54296875 C-54.66291016 37.61451629 -49.247091 33.64127665 -43.84375 29.6484375 C-36.85704525 24.48730725 -29.85412864 19.34995616 -22.7902832 14.29467773 C-19.24732318 11.75904146 -15.73547956 9.19857638 -12.28125 6.54296875 C-11.32859253 5.82415527 -11.32859253 5.82415527 -10.35668945 5.09082031 C-9.17469021 4.19732563 -8.00306994 3.28986125 -6.84448242 2.36621094 C-4.44096419 0.5703383 -3.03984087 -0.45597613 0 0 Z " fill="#79FED4" transform="translate(257.34375,89.3515625)"/>
<path d="M0 0 C0.16131154 14.71469666 -0.30819806 29.40369466 -0.7747848 44.10957885 C-0.86282692 46.89512978 -0.949141 49.68073324 -1.03546149 52.46633798 C-1.23931374 59.04460937 -1.44577593 65.62279504 -1.65405273 72.20092773 C-1.86751854 78.94407357 -2.07702623 85.68733394 -2.28451437 92.43066615 C-2.46419145 98.2664893 -2.64609178 104.10224022 -2.82977968 109.93793851 C-2.93885411 113.40336088 -3.0471961 116.86880155 -3.15348625 120.33431053 C-3.27218312 124.19978501 -3.39553983 128.06510369 -3.51928711 131.93041992 C-3.55309479 133.05027283 -3.58690247 134.17012573 -3.62173462 135.32391357 C-3.72720483 138.55049562 -3.85798098 141.77482962 -4 145 C-4.06979915 146.83750793 -4.06979915 146.83750793 -4.14100838 148.71213722 C-4.20388983 149.9425392 -4.26677128 151.17294117 -4.33155823 152.44062805 C-4.38318902 153.55223454 -4.43481981 154.66384104 -4.48801517 155.80913258 C-5.43634495 161.71945344 -8.82717581 166.08117042 -12.3125 170.8125 C-13.0358252 171.84366943 -13.75915039 172.87483887 -14.50439453 173.93725586 C-16.64398183 176.97743596 -18.81896418 179.98948403 -21 183 C-22.12956281 184.59665651 -23.25617513 186.19540724 -24.37890625 187.796875 C-26.33986761 190.59220127 -28.31150768 193.37932907 -30.29296875 196.16015625 C-33.2405319 200.3166039 -36.06586304 204.54772789 -38.8762207 208.79760742 C-42.88870064 214.85725509 -46.97256047 220.86742639 -51.0625 226.875 C-51.78896729 227.94210205 -52.51543457 229.0092041 -53.26391602 230.10864258 C-54.38381437 231.75327511 -55.50371439 233.39790652 -56.62385559 235.04237366 C-59.9174563 239.87770714 -63.20682914 244.71590602 -66.49536133 249.5546875 C-68.60516137 252.65831632 -70.7165966 255.76082814 -72.828125 258.86328125 C-75.65812693 263.02258691 -78.47998756 267.18727135 -81.296875 271.35546875 C-81.98313965 272.36843018 -82.6694043 273.3813916 -83.37646484 274.42504883 C-84.67629884 276.34367749 -85.97363716 278.26400011 -87.26806641 280.1862793 C-87.84733887 281.0400415 -88.42661133 281.89380371 -89.0234375 282.7734375 C-89.52794434 283.52028809 -90.03245117 284.26713867 -90.55224609 285.03662109 C-93.83512388 289.48871269 -96.43181396 290.6803411 -101.83642578 292.2421875 C-102.53351088 292.44655426 -103.23059597 292.65092102 -103.94880486 292.86148071 C-106.27838592 293.5419303 -108.61174358 294.20836687 -110.9453125 294.875 C-112.60360692 295.35654786 -114.26164202 295.83898951 -115.91943359 296.32226562 C-120.39017252 297.62297134 -124.86426166 298.9117714 -129.33914948 300.19812012 C-133.9829262 301.53478592 -138.62395448 302.88092109 -143.26513672 304.2265625 C-148.93472876 305.86994771 -154.60453503 307.51256447 -160.27566528 309.15063477 C-171.63019997 312.43185496 -182.97208 315.75257343 -194.3008461 319.12167358 C-196.59456065 319.80345227 -198.88872146 320.48370494 -201.18307495 321.16333008 C-201.91989061 321.38158951 -202.65670628 321.59984894 -203.41584969 321.82472229 C-204.87131238 322.25579633 -206.32679079 322.68681731 -207.78228569 323.11778259 C-211.2874465 324.15632095 -214.79140778 325.19861025 -218.29302979 326.24902344 C-222.1529266 327.40673938 -226.01759543 328.54767402 -229.8828125 329.6875 C-231.00308838 330.02692627 -232.12336426 330.36635254 -233.27758789 330.71606445 C-245.0889269 334.16962415 -253.14231938 332.40954346 -264.65625 328.92578125 C-266.13062369 328.48854279 -267.60529752 328.05231531 -269.08024597 327.61701965 C-272.24014382 326.68229645 -275.39796119 325.7409523 -278.55429077 324.79425049 C-283.53414055 323.30069104 -288.51819957 321.82156705 -293.50317383 320.34521484 C-298.68869169 318.80885856 -303.87397414 317.27174124 -309.05781555 315.72973633 C-326.31341211 310.5979002 -343.59439221 305.55432985 -360.87988281 300.52426147 C-365.65339722 299.13514845 -370.42637639 297.74420335 -375.19921875 296.3527832 C-382.46591795 294.23440605 -389.73285334 292.11684174 -397 290 C-397 286.52080594 -396.43728985 285.88298833 -394.39453125 283.18359375 C-393.82984131 282.42876709 -393.26515137 281.67394043 -392.68334961 280.89624023 C-392.06596924 280.08485596 -391.44858887 279.27347168 -390.8125 278.4375 C-389.5174317 276.70893052 -388.2231792 274.97974957 -386.9296875 273.25 C-386.2706543 272.37214844 -385.61162109 271.49429687 -384.93261719 270.58984375 C-382.05741339 266.73686726 -379.24418172 262.84053503 -376.4375 258.9375 C-375.90761475 258.20225098 -375.37772949 257.46700195 -374.83178711 256.70947266 C-373.76004646 255.22227193 -372.68867525 253.73480489 -371.61767578 252.24707031 C-368.8725033 248.43382438 -366.12413365 244.62289069 -363.375 240.8125 C-362.89732178 240.14919678 -362.41964355 239.48589355 -361.92749023 238.80249023 C-360.94146361 237.43564428 -359.93836768 236.08096698 -358.91948414 234.73843479 C-357.42985545 232.61325389 -356.19128515 230.57383714 -354.945117 228.31284237 C-349.08948464 218.31347842 -349.08948464 218.31347842 -343.97609353 216.13954663 C-338.18836197 214.79537079 -332.28992354 215.11903366 -326.3918457 215.29711914 C-324.4198082 215.30135602 -322.44774708 215.29896394 -320.47572327 215.29048157 C-315.14799911 215.28619465 -309.82538817 215.37407295 -304.4988482 215.47909093 C-298.92309862 215.57316252 -293.34721843 215.58169495 -287.77079773 215.59947205 C-277.22316375 215.64600814 -266.67787492 215.76897487 -256.13127154 215.91971439 C-244.1194855 216.08765101 -232.10758462 216.16991673 -220.09491599 216.24514592 C-195.3953128 216.40173821 -170.69778805 216.66540127 -146 217 C-145.8744832 216.4115351 -145.74896641 215.8230702 -145.61964607 215.21677303 C-144.70144479 210.98611655 -143.73719834 206.83683275 -142.37451172 202.72290039 C-142.0652626 201.7817337 -141.75601349 200.84056702 -141.43739319 199.87088013 C-141.10485031 198.87321625 -140.77230743 197.87555237 -140.4296875 196.84765625 C-140.07696274 195.77699921 -139.72423798 194.70634216 -139.36082458 193.60324097 C-138.60038782 191.29592637 -137.83809506 188.98922279 -137.0741272 186.68307495 C-135.22110413 181.08816481 -133.37975246 175.48942401 -131.53927803 169.89037514 C-131.11853564 168.61046062 -130.69765029 167.33059309 -130.27662468 166.05077171 C-126.21515794 153.70282087 -122.25107989 141.3250976 -118.3125 128.9375 C-111.54361142 107.66646381 -104.60052757 86.45394748 -97.625 65.25 C-97.36653416 64.46428997 -97.10806831 63.67857994 -96.84177017 62.86906052 C-90.0146706 42.11744668 -90.0146706 42.11744668 -87 33 C-86.68257339 31.91164352 -86.36514679 30.82328705 -86.0381012 29.70195007 C-85 27 -85 27 -82.3059082 25.45532227 C-80.57087036 24.89155884 -80.57087036 24.89155884 -78.80078125 24.31640625 C-77.83032112 23.99031624 -77.83032112 23.99031624 -76.84025574 23.65763855 C-74.67131519 22.93573048 -72.49282556 22.24918239 -70.3125 21.5625 C-68.78063003 21.06146185 -67.24939285 20.55848544 -65.71875 20.05371094 C-61.44324089 18.65154972 -57.15773088 17.28235636 -52.87017822 15.9175415 C-48.76566789 14.60540745 -44.66805594 13.2722676 -40.56987 11.9405365 C-35.21588146 10.202171 -29.85843098 8.47461692 -24.5 6.75 C-23.45051178 6.41195343 -22.40102356 6.07390686 -21.31973267 5.72561646 C-18.3293651 4.76501378 -15.33698528 3.8109991 -12.34375 2.859375 C-11.44214645 2.56935104 -10.54054291 2.27932709 -9.61161804 1.98051453 C-8.36817375 1.58748894 -8.36817375 1.58748894 -7.09960938 1.18652344 C-6.37688843 0.95624451 -5.65416748 0.72596558 -4.9095459 0.4887085 C-3 0 -3 0 0 0 Z " fill="#1EE2A5" transform="translate(502,179)"/>
<path d="M0 0 C9.26314986 1.43690534 18.01241706 4.4632861 26.875 7.41015625 C28.49244115 7.9434531 30.11003831 8.476277 31.7277832 9.00865173 C35.09752861 10.11886699 38.46600777 11.23281111 41.83349609 12.34985352 C46.15392206 13.78296793 50.47645126 15.20960297 54.79980469 16.63385868 C58.92974111 17.9946589 63.05867598 19.3584853 67.1875 20.72265625 C67.97533875 20.98271013 68.76317749 21.24276402 69.57489014 21.51069832 C71.79397288 22.24382742 74.01233613 22.9790899 76.23046875 23.71508789 C76.89017166 23.93276825 77.54987457 24.15044861 78.22956848 24.37472534 C80.5563734 25.14870654 82.80351903 25.90175951 85 27 C85.80718799 28.97561554 86.51355353 30.99259124 87.17626953 33.02124023 C87.38530065 33.65418975 87.59433176 34.28713926 87.80969715 34.93926907 C88.50800075 37.06006855 89.19539718 39.18424235 89.8828125 41.30859375 C90.3733697 42.80636511 90.86455744 44.30393009 91.3563385 45.80130005 C92.67956463 49.83699936 93.9931919 53.87576441 95.30492783 57.91521072 C96.40091685 61.2861352 97.5025538 64.65520176 98.6042738 68.02425671 C105.49467487 89.09642188 112.31752152 110.19025888 119.01391602 131.32495117 C122.56917136 142.52555224 126.21279453 153.69328794 129.93415642 164.8395977 C130.67652283 167.0647331 131.4171481 169.29043985 132.15711975 171.51637268 C132.40063895 172.24882548 132.64415815 172.98127829 132.89505672 173.73592663 C133.38612352 175.21304756 133.8771241 176.6901905 134.3680582 178.16735554 C135.81226053 182.50870871 137.26867234 186.84572671 138.73405075 191.17997456 C139.64112734 193.87182542 140.5371203 196.56727333 141.43031693 199.26375771 C142.05084666 201.1251999 142.68520971 202.98201258 143.31991577 204.83866882 C143.68944366 205.96021866 144.05897156 207.08176849 144.43969727 208.23730469 C144.93023338 209.69653351 144.93023338 209.69653351 145.43067932 211.1852417 C146.36027993 215.78124732 145.6980652 218.93899944 143.13671875 222.83203125 C142.32847656 223.81558594 141.52023438 224.79914063 140.6875 225.8125 C139.76638427 226.95971992 138.84856462 228.109592 137.93359375 229.26171875 C137.45132324 229.86806152 136.96905273 230.4744043 136.47216797 231.09912109 C133.94787188 234.35851899 131.60502005 237.74232771 129.25 241.125 C124.30603597 248.19791682 119.22863627 255.16167445 114.09106445 262.0949707 C109.70898547 268.01532863 105.41878487 273.99337543 101.18359375 280.01953125 C98.90265045 283.13287604 96.49962139 286.06107784 94 289 C90.4875841 284.76174043 87.39916717 280.29980279 84.3125 275.75 C83.75288574 274.92862549 83.19327148 274.10725098 82.61669922 273.26098633 C80.74238163 270.50873655 78.87110478 267.75443484 77 265 C75.6316319 262.98819862 74.26313908 260.97648206 72.89453125 258.96484375 C70.01464128 254.73113666 67.13592147 250.49663673 64.2578125 246.26171875 C60.34399894 240.50408377 56.42333143 234.75115215 52.5 229 C45.77828132 219.14576063 39.06897762 209.28311658 32.36328125 199.41796875 C29.75059974 195.57432936 27.13698123 191.73133172 24.52185059 187.88935852 C23.36453645 186.18910296 22.20739218 184.48873191 21.05029297 182.78833008 C19.60302801 180.66164322 18.15545757 178.5351642 16.70751953 176.40893555 C15.40042652 174.48785657 14.10123016 172.56137447 12.81103516 170.62890625 C11.06354709 168.02381082 11.06354709 168.02381082 9.21630859 165.77734375 C5.81157854 161.37944088 4.65949793 158.11086992 4.36915588 152.52583313 C4.30084627 151.28312967 4.23253666 150.04042622 4.16215706 148.76006508 C4.10864523 147.5192436 4.0551334 146.27842213 4 145 C3.95179045 143.92104147 3.90358089 142.84208294 3.85391045 141.7304287 C3.72360796 138.46411802 3.61792839 135.19783507 3.51928711 131.93041992 C3.4801268 130.70722549 3.44096649 129.48403107 3.40061951 128.22377014 C3.29527999 124.91370432 3.19241588 121.60358132 3.09088969 118.29339767 C2.98317658 114.79664413 2.87265209 111.29997914 2.7625885 107.80329895 C2.57824431 101.93232229 2.39622601 96.06127696 2.21557617 90.19018555 C2.00811053 83.4486598 1.79673237 76.70726525 1.58328813 69.96592635 C1.37634533 63.4263831 1.17244142 56.8867482 0.96978951 50.34707069 C0.88427573 47.58953951 0.79770712 44.83204464 0.71021843 42.07457542 C0.26742936 28.0464336 -0.15387421 14.0362707 0 0 Z " fill="#36FEC0" transform="translate(10,179)"/>
<path d="M0 0 C0.44222217 11.36076617 0.778779 22.71945611 0.98443127 34.0871067 C1.08319831 39.36749881 1.21683338 44.64196543 1.43334961 49.91894531 C2.91246397 86.92229966 2.91246397 86.92229966 -3.99755859 94.73144531 C-7.83326211 97.95262325 -11.87746465 100.05100677 -16.51266479 101.89483643 C-20.77993997 103.79085634 -24.31378025 106.67246782 -28 109.5 C-29.48642485 110.57728818 -30.97565206 111.65072976 -32.46875 112.71875 C-37.16958409 116.11379684 -41.836597 119.55379844 -46.5 123 C-53.3770356 128.08205078 -60.29033083 133.11002797 -67.23046875 138.10546875 C-72.68083962 142.03392105 -78.09667078 146.00714521 -83.5 150 C-93.3539512 157.27959514 -103.28574596 164.44830513 -113.22949219 171.60449219 C-115.46610142 173.21465507 -117.70204272 174.82573823 -119.9375 176.4375 C-121.04206543 177.23377808 -121.04206543 177.23377808 -122.16894531 178.04614258 C-126.92315787 181.48048729 -131.65134467 184.94815809 -136.36352539 188.43994141 C-138.76270425 190.21319552 -141.17194227 191.97208623 -143.58203125 193.73046875 C-146.34591112 195.75312359 -149.04463909 197.82456213 -151.69921875 199.98828125 C-152.26342529 200.42817383 -152.82763184 200.86806641 -153.40893555 201.32128906 C-154.87368489 202.46395987 -156.31319157 203.6387948 -157.75 204.81640625 C-161.39655012 206.14441669 -162.18997003 205.92497124 -165.78295898 204.87280273 C-166.76376434 204.58634384 -167.7445697 204.29988495 -168.75509644 204.00474548 C-174.76680128 202.14329316 -180.74868001 200.19739628 -186.72265625 198.21875 C-188.11778128 197.75911743 -189.51300111 197.29977255 -190.90830994 196.84069824 C-194.55312223 195.64085806 -198.19690639 194.43792864 -201.84039307 193.23406982 C-207.67252218 191.30743437 -213.5059685 189.38479936 -219.33990288 187.46363831 C-221.35748429 186.79861151 -223.37446191 186.13177917 -225.39137268 185.46472168 C-232.23302343 183.20888032 -239.08364082 181.01620268 -246 179 C-243.13383432 173.39228454 -239.50112259 168.82370301 -235.47265625 163.99609375 C-232.59034074 160.50361982 -229.83309551 156.92690048 -227.08349609 153.32958984 C-223.41494977 148.53268972 -219.71149901 143.76373069 -216 139 C-210.30602117 131.68736222 -204.64171199 124.35303129 -199 117 C-192.75766659 108.8641588 -186.48150517 100.75591816 -180.18164062 92.66455078 C-175.89503737 87.15670969 -171.62785268 81.63458644 -167.37890625 76.09765625 C-165.7027774 73.91511081 -164.02349281 71.73531583 -162.33984375 69.55859375 C-161.89608398 68.98407471 -161.45232422 68.40955566 -160.99511719 67.81762695 C-159.77219853 66.23463684 -158.54824696 64.65244483 -157.32421875 63.0703125 C-155.12539869 60.29540188 -155.12539869 60.29540188 -154.01916504 58.30912781 C-150.57574603 52.6195073 -146.48540351 51.04525476 -140.33203125 49.01171875 C-139.36587891 48.67126526 -138.39972656 48.33081177 -137.40429688 47.9800415 C-134.21406115 46.86108106 -131.01366873 45.7747435 -127.8125 44.6875 C-125.55797894 43.90228287 -123.30432886 43.11456092 -121.05151367 42.32446289 C-116.3670946 40.68376569 -111.67910293 39.05393757 -106.98828125 37.43164062 C-97.25955404 34.05805586 -87.5778737 30.55543904 -77.89538574 27.05184937 C-74.81582924 25.9387034 -71.73484998 24.82959479 -68.65332031 23.72192383 C-57.93221741 19.86779078 -47.21946987 15.9916591 -36.515625 12.08984375 C-33.24986677 10.90131905 -29.98399889 9.71309608 -26.71810913 8.52493286 C-23.62108237 7.39634795 -20.52598962 6.26256888 -17.4309082 5.12866211 C-15.55950101 4.44749709 -13.68800536 3.76657503 -11.81640625 3.0859375 C-10.96270447 2.77128036 -10.10900269 2.45662323 -9.22943115 2.13243103 C-8.057341 1.70795433 -8.057341 1.70795433 -6.86157227 1.27490234 C-6.18409439 1.02719086 -5.50661652 0.77947937 -4.80860901 0.52426147 C-3 0 -3 0 0 0 Z " fill="#1EE3A5" transform="translate(256,0)"/>
<path d="M0 0 C1.94941977 -0.02691422 3.89876112 -0.06012743 5.84797668 -0.09912109 C11.11795495 -0.18425249 16.38370891 -0.17462295 21.65412354 -0.1422143 C26.0651045 -0.12372803 30.47529987 -0.15181662 34.88619345 -0.17966926 C45.29950164 -0.24462073 55.7107503 -0.23255159 66.12402344 -0.17089844 C76.83989138 -0.10867837 87.54992421 -0.17018627 98.265127 -0.29396355 C107.48970266 -0.39646402 116.71246595 -0.42461043 125.9375574 -0.3933419 C131.43665256 -0.37524649 136.93219347 -0.38386094 142.43082619 -0.46295547 C178.43984281 -0.92938461 178.43984281 -0.92938461 186.25424194 6.07550049 C189.48719651 9.90233125 191.61397478 13.90914641 193.49330711 18.531147 C195.42952636 22.80412054 198.3350068 26.36249022 201.17651367 30.06689453 C202.25396936 31.55189301 203.32744882 33.03979234 204.39526367 34.53173828 C204.92506836 35.26763184 205.45487305 36.00352539 206.00073242 36.76171875 C207.08447269 38.26826204 208.16779997 39.77510249 209.25073242 41.28222656 C216.91674794 51.95046134 224.69070932 62.52564607 232.61401367 73.00439453 C231.61401367 75.00439453 231.61401367 75.00439453 228.81811523 76.02818298 C227.55966797 76.39279129 226.3012207 76.7573996 225.00463867 77.13305664 C223.95944911 77.43938774 223.95944911 77.43938774 222.89314461 77.75190735 C220.55220109 78.43596832 218.20816341 79.10875387 215.86401367 79.78173828 C214.20291036 80.26488698 212.5420156 80.7487532 210.88131714 81.23329163 C206.39363775 82.54054662 201.9032387 83.8382131 197.4121933 85.1338501 C192.7556038 86.47855692 188.10112298 87.83051955 183.4465332 89.18212891 C177.76144123 90.83270601 172.07619773 92.48274306 166.3899231 94.12924194 C155.01645463 97.42410085 143.65458796 100.75543919 132.30461884 104.13034248 C127.81361206 105.46495095 123.32098117 106.79408596 118.82851791 108.12378216 C115.32456975 109.16156156 111.82184863 110.20317101 108.3215332 111.25314331 C104.46144187 112.4109111 100.59659516 113.551957 96.73120117 114.69189453 C95.61091522 115.03132584 94.49062927 115.37075714 93.33639526 115.72047424 C81.52506437 119.1740078 73.47168379 117.41393482 61.95776367 113.93017578 C60.48338998 113.49293732 59.00871616 113.05670984 57.5337677 112.62141418 C54.37386986 111.68669098 51.21605248 110.74534683 48.0597229 109.79864502 C43.07987312 108.30508558 38.0958141 106.82596159 33.11083984 105.34960938 C27.92532198 103.81325309 22.74003953 102.27613577 17.55619812 100.73413086 C0.30060156 95.60229473 -16.98037854 90.55872438 -34.26586914 85.52865601 C-39.03938355 84.13954298 -43.81236272 82.74859789 -48.58520508 81.35717773 C-55.85190428 79.23880059 -63.11883967 77.12123627 -70.38598633 75.00439453 C-70.38598633 71.52520047 -69.82327618 70.88738287 -67.78051758 68.18798828 C-67.21582764 67.43316162 -66.6511377 66.67833496 -66.06933594 65.90063477 C-65.14326538 64.68355835 -65.14326538 64.68355835 -64.19848633 63.44189453 C-62.90341803 61.71332505 -61.60916553 59.9841441 -60.31567383 58.25439453 C-59.32712402 56.93761719 -59.32712402 56.93761719 -58.31860352 55.59423828 C-55.44339971 51.74126179 -52.63016805 47.84492956 -49.82348633 43.94189453 C-49.29360107 43.20664551 -48.76371582 42.47139648 -48.21777344 41.71386719 C-47.14603279 40.22666646 -46.07466158 38.73919942 -45.00366211 37.25146484 C-42.25848962 33.43821891 -39.51011997 29.62728522 -36.76098633 25.81689453 C-36.04446899 24.8219397 -36.04446899 24.8219397 -35.31347656 23.80688477 C-34.32736597 22.43992241 -33.32456964 21.08485857 -32.30633831 19.74165154 C-30.81882033 17.62135325 -29.57388043 15.58107886 -28.32329273 13.32783699 C-20.94693041 0.800313 -13.89088646 -0.19627375 0 0 Z " fill="#15AA78" transform="translate(175.385986328125,393.99560546875)"/>
<path d="M0 0 C0.33 0 0.66 0 1 0 C1.17093236 14.34577417 0.67912617 28.67133203 0.2252152 43.00818491 C0.13725575 45.79617354 0.05090227 48.58421104 -0.03546149 51.37224948 C-0.23943754 57.95673314 -0.44589653 64.54113554 -0.65405273 71.12548828 C-0.86742603 77.87600056 -1.0769464 84.62662447 -1.28451437 91.37731755 C-1.46419792 97.21736653 -1.64610268 103.05734343 -1.82977968 108.89726818 C-1.93887085 112.36605845 -2.04721598 115.83486733 -2.15348625 119.30374527 C-2.27218983 123.1741181 -2.39554549 127.04433561 -2.51928711 130.91455078 C-2.56999863 132.59668671 -2.56999863 132.59668671 -2.62173462 134.31280518 C-2.7271837 137.54309077 -2.85794219 140.77112687 -3 144 C-3.06979915 145.83799227 -3.06979915 145.83799227 -3.14100838 147.71311569 C-3.20388983 148.94352207 -3.26677128 150.17392845 -3.33155823 151.44161987 C-3.40900442 153.10881482 -3.40900442 153.10881482 -3.48801517 154.80969048 C-4.43645583 160.71966889 -7.82736133 165.08142228 -11.3125 169.8125 C-12.0358252 170.84366943 -12.75915039 171.87483887 -13.50439453 172.93725586 C-15.64398183 175.97743596 -17.81896418 178.98948403 -20 182 C-21.12956281 183.59665651 -22.25617513 185.19540724 -23.37890625 186.796875 C-25.33986761 189.59220127 -27.31150768 192.37932907 -29.29296875 195.16015625 C-32.2405319 199.3166039 -35.06586304 203.54772789 -37.8762207 207.79760742 C-41.88870144 213.85725629 -45.97264706 219.86736627 -50.0625 225.875 C-50.78679199 226.93920166 -51.51108398 228.00340332 -52.25732422 229.09985352 C-55.24922927 233.49456255 -58.24247467 237.88835639 -61.23632812 242.28173828 C-70.226536 255.47595746 -79.17896037 268.69195755 -88 282 C-88.99 281.67 -89.98 281.34 -91 281 C-82.87091657 261.37014733 -74.73539109 241.7429683 -66.56298828 222.13110352 C-64.88334143 218.09972928 -63.20911943 214.06615968 -61.53857422 210.03100586 C-57.86866902 201.18021699 -54.18020838 192.34392044 -50.29716492 183.58410645 C-48.68554028 179.94440697 -47.09762511 176.29454272 -45.51022339 172.64422607 C-44.78652288 170.9983857 -44.05174463 169.35734099 -43.30252075 167.72296143 C-35.40613908 150.48695526 -31.60354515 132.12217586 -27.33856201 113.74197388 C-25.98862723 107.93217771 -24.60322639 102.13120744 -23.20947266 96.33178711 C-22.85756898 94.86698835 -22.85756898 94.86698835 -22.49855614 93.37259769 C-22.02181365 91.38829499 -21.54502657 89.40400299 -21.06819534 87.4197216 C-19.87291195 82.43911115 -18.6844123 77.45688538 -17.49609375 72.47460938 C-17.26036966 71.48647971 -17.02464558 70.49835005 -16.78177834 69.48027706 C-16.06276696 66.46603837 -15.3438768 63.45177079 -14.625 60.4375 C-12.93028321 53.33221688 -11.23486471 46.22710213 -9.5381279 39.1223011 C-8.87501747 36.34435294 -8.2129355 33.56616116 -7.55093384 30.78794861 C-5.09839293 20.50868247 -2.58859263 10.24587233 0 0 Z " fill="#1BD198" transform="translate(501,180)"/>
<path d="M0 0 C7.84883882 -0.19912656 15.50616845 0.42387747 23.30786133 1.2409668 C25.30060247 1.44306305 27.2933448 1.64514795 29.28612936 1.84681571 C31.41378373 2.06277349 33.54120981 2.28088555 35.66861916 2.49924278 C40.15224329 2.95808506 44.63716701 3.40320109 49.1224823 3.84516907 C49.88542486 3.92039297 50.64836743 3.99561688 51.43442947 4.0731203 C52.9945591 4.22689051 54.55469309 4.38061658 56.11483133 4.53429949 C66.53551896 5.56104956 76.95524399 6.59489864 87.37084961 7.67211914 C133.10747828 12.96989608 133.10747828 12.96989608 178.91458321 10.92352295 C185.48635772 10.02240954 192.07180921 9.38832233 198.67749023 8.7902832 C199.81231874 8.68749148 200.94714724 8.58469976 202.11636448 8.47879314 C204.46732581 8.2665568 206.81832858 8.05477909 209.16937065 7.8434391 C215.08006671 7.30699505 220.98820938 6.74402526 226.89648438 6.18164062 C229.2867023 5.95483218 231.6769204 5.72802555 234.06713867 5.5012207 C238.94936137 5.0373443 243.83150416 4.57263355 248.71362305 4.10766602 C254.7081998 3.53698533 260.70311032 2.96992336 266.69823265 2.4050045 C270.04204654 2.08876817 273.38543612 1.76828647 276.72883606 1.44770813 C278.77143152 1.25502224 280.81404818 1.06256092 282.85668945 0.87036133 C283.77032761 0.78156708 284.68396576 0.69277283 285.62528992 0.60128784 C290.77693724 0.12202334 295.82593436 -0.08361648 301 0 C298.32176656 2.67823344 295.34966302 3.24673516 291.79882812 4.25219727 C291.05180067 4.469336 290.30477322 4.68647474 289.53510857 4.91019344 C287.03555808 5.63508682 284.53343415 6.35066152 282.03125 7.06640625 C280.26240911 7.57764439 278.49374588 8.08949756 276.72525024 8.60192871 C271.97018709 9.97805838 267.21291325 11.34638826 262.45511627 12.71303177 C254.58649291 14.97492097 246.72149019 17.24940185 238.85571671 19.52117729 C235.89242719 20.37673529 232.92887202 21.23136866 229.96530151 22.08595276 C218.88698828 25.28283279 207.8201509 28.51483132 196.7705307 31.8095417 C194.69964747 32.42689178 192.62836639 33.04288761 190.5569458 33.65843201 C183.01835148 35.89909733 183.01835148 35.89909733 175.48608398 38.16091919 C172.14188434 39.17006594 168.79409896 40.16635746 165.4453125 41.16015625 C164.49089264 41.45265259 163.53647278 41.74514893 162.5531311 42.04650879 C151.37066864 45.33477315 143.22264604 43.21740148 132.34375 39.92578125 C130.86937631 39.48854279 129.39470248 39.05231531 127.91975403 38.61701965 C124.75985618 37.68229645 121.60203881 36.7409523 118.44570923 35.79425049 C113.46585945 34.30069104 108.48180043 32.82156705 103.49682617 31.34521484 C98.31130831 29.80885856 93.12602586 28.27174124 87.94218445 26.72973633 C70.68658789 21.5979002 53.40560779 16.55432985 36.12011719 11.52426147 C31.34660278 10.13514845 26.57362361 8.74420335 21.80078125 7.3527832 C14.53408205 5.23440605 7.26714666 3.11684174 0 1 C0 0.67 0 0.34 0 0 Z " fill="#13966A" transform="translate(105,468)"/>
</svg>
