<?xml version="1.0" encoding="UTF-8"?>
<svg version="1.1" xmlns="http://www.w3.org/2000/svg" width="512" height="512">
<path d="M0 0 C1.03811545 -0.00623996 2.07623091 -0.01247993 3.14580441 -0.01890898 C6.62355717 -0.03486078 10.1006112 -0.0222256 13.57836914 -0.00964355 C16.07195444 -0.01506367 18.56553653 -0.0221857 21.05911255 -0.03088379 C27.12840299 -0.04723775 33.19741932 -0.04483315 39.26669908 -0.03323323 C44.19977838 -0.02419561 49.13280224 -0.02297631 54.06588745 -0.02732849 C54.76828393 -0.02794142 55.47068041 -0.02855436 56.19436163 -0.02918586 C57.62131605 -0.03046478 59.04827046 -0.03176163 60.47522485 -0.03307623 C73.85232449 -0.04447939 87.22931443 -0.03137249 100.60639608 -0.00987476 C112.08180921 0.00799602 123.55706049 0.00489183 135.0324707 -0.0135498 C148.36205618 -0.03496121 161.69154555 -0.04338078 175.02114582 -0.03110075 C176.44281831 -0.02982657 177.86449081 -0.02856909 179.28616333 -0.02732849 C179.98563314 -0.02671139 180.68510295 -0.02609429 181.40576881 -0.02545848 C186.33229344 -0.02200639 191.25875704 -0.02783089 196.18527222 -0.0372467 C202.81732967 -0.04964374 209.44912871 -0.04080356 216.08117294 -0.01766968 C218.51683926 -0.01237546 220.95253128 -0.01390847 223.38818741 -0.02272034 C226.70982422 -0.03363063 230.03047689 -0.0199655 233.35205078 0 C234.31878188 -0.00892289 235.28551298 -0.01784577 236.28153896 -0.02703905 C242.05703593 0.04042144 245.25186187 0.71037548 249.67602539 4.50793457 C251.48022461 6.90441895 251.48022461 6.90441895 252.98071289 9.60168457 C253.5555542 10.61730469 254.13039551 11.6329248 254.72265625 12.67932129 C255.32601807 13.77776367 255.92937988 14.87620605 256.55102539 16.00793457 C257.20397361 17.17166127 257.85838356 18.33456888 258.51416016 19.4967041 C259.88703778 21.9333519 261.25264819 24.37386374 262.61303711 26.81750488 C265.89456748 32.70225506 269.26169163 38.53803538 272.61352539 44.38293457 C273.95721096 46.73379129 275.29913402 49.08565173 276.64086914 51.43762207 C280.31701184 57.87987214 283.99653983 64.32018304 287.67703247 70.75994873 C289.34350821 73.67586129 291.00975521 76.59190455 292.67602539 79.50793457 C293.34269096 80.67460186 294.00935763 81.84126853 294.67602539 83.00793457 C346.74047852 174.12072754 346.74047852 174.12072754 347.77844238 175.93734741 C348.46939408 177.14639102 349.16055549 178.35531481 349.85192871 179.56411743 C351.54694293 182.52828534 353.23845701 185.49433322 354.92211914 188.46496582 C357.98879678 193.86378753 361.09145578 199.224959 364.34790039 204.51184082 C364.9121875 205.44520264 365.47647461 206.37856445 366.05786133 207.34020996 C367.09144561 209.04418936 368.1449971 210.73632012 369.22387695 212.4119873 C372.98135946 218.67071739 373.97623053 224.28201572 372.67602539 231.50793457 C371.07576389 235.71691893 368.90343069 239.42786292 366.55102539 243.25793457 C365.91938477 244.33430176 365.28774414 245.41066895 364.63696289 246.51965332 C363.31949459 248.75987224 361.99092963 250.99360047 360.65161133 253.2208252 C358.19416689 257.30968232 355.79362674 261.43014115 353.39526367 265.55383301 C352.24340065 267.5330353 351.08809021 269.51023502 349.92944336 271.48547363 C345.75325829 278.60975928 341.69175912 285.79216303 337.67602539 293.00793457 C332.5397115 302.23724859 327.27390005 311.3803043 321.92602539 320.48840332 C317.7535858 327.61321647 313.69107295 334.79339598 309.67602539 342.00793457 C304.5397115 351.23724859 299.27390005 360.3803043 293.92602539 369.48840332 C289.7535837 376.61322004 285.69121918 383.79347472 281.67602539 391.00793457 C276.46979425 400.35888269 271.16124743 409.64257538 265.73266602 418.86633301 C262.9576813 423.58192141 260.21491831 428.30793018 257.56274414 433.09387207 C257.07378662 433.96737305 256.5848291 434.84087402 256.08105469 435.74084473 C255.17631953 437.36166479 254.28234821 438.98856441 253.40185547 440.62268066 C252.99733154 441.3427832 252.59280762 442.06288574 252.17602539 442.80480957 C251.83571289 443.42710449 251.49540039 444.04939941 251.14477539 444.69055176 C248.47665436 447.99199673 245.66386908 450.17458372 241.46199226 450.87921619 C238.75149318 451.02390754 236.06636793 451.04092217 233.35205078 451.01586914 C232.31393533 451.0221091 231.27581987 451.02834907 230.20624638 451.03477812 C226.72849361 451.05072992 223.25143958 451.03809474 219.77368164 451.0255127 C217.28009634 451.03093281 214.78651425 451.03805484 212.29293823 451.04675293 C206.22364779 451.06310689 200.15463146 451.06070229 194.08535171 451.04910237 C189.1522724 451.04006475 184.21924854 451.03884545 179.28616333 451.04319763 C178.58376685 451.04381056 177.88137037 451.0444235 177.15768915 451.045055 C175.73073473 451.04633392 174.30378032 451.04763077 172.87682593 451.04894537 C159.49972629 451.06034853 146.12273635 451.04724163 132.7456547 451.0257439 C121.27024157 451.00787312 109.79499029 451.01097731 98.31958008 451.02941895 C84.9899946 451.05083035 71.66050523 451.05924992 58.33090496 451.04696989 C56.90923247 451.04569571 55.48755997 451.04443823 54.06588745 451.04319763 C53.36641764 451.04258053 52.66694783 451.04196343 51.94628197 451.04132763 C47.01975734 451.03787553 42.09329374 451.04370003 37.16677856 451.05311584 C30.53472111 451.06551288 23.90292207 451.0566727 17.27087784 451.03353882 C14.83521152 451.0282446 12.3995195 451.02977761 9.96386337 451.03858948 C6.64222656 451.04949977 3.32157389 451.03583464 0 451.01586914 C-1.45009665 451.02925347 -1.45009665 451.02925347 -2.92948818 451.04290819 C-8.70498515 450.9754477 -11.89981109 450.30549366 -16.32397461 446.50793457 C-18.12817383 444.1114502 -18.12817383 444.1114502 -19.62866211 441.41418457 C-20.20350342 440.39856445 -20.77834473 439.38294434 -21.37060547 438.33654785 C-21.97396729 437.23810547 -22.5773291 436.13966309 -23.19897461 435.00793457 C-23.85192283 433.84420787 -24.50633278 432.68130026 -25.16210938 431.51916504 C-26.534987 429.08251724 -27.90059741 426.6420054 -29.26098633 424.19836426 C-32.5425167 418.31361408 -35.90964085 412.47783376 -39.26147461 406.63293457 C-40.60516018 404.28207786 -41.94708324 401.93021741 -43.28881836 399.57824707 C-46.96496106 393.135997 -50.64448905 386.6956861 -54.32498169 380.25592041 C-55.99145743 377.34000785 -57.65770442 374.42396459 -59.32397461 371.50793457 C-59.99064018 370.34126728 -60.65730685 369.17460061 -61.32397461 368.00793457 C-113.38842773 276.8951416 -113.38842773 276.8951416 -114.4263916 275.07852173 C-115.1173433 273.86947812 -115.80850471 272.66055433 -116.49987793 271.45175171 C-118.19489215 268.4875838 -119.88640623 265.52153592 -121.57006836 262.55090332 C-124.636746 257.15208161 -127.739405 251.79091014 -130.99584961 246.50402832 C-131.56013672 245.5706665 -132.12442383 244.63730469 -132.70581055 243.67565918 C-133.73939483 241.97167978 -134.79294631 240.27954902 -135.87182617 238.60388184 C-139.62930868 232.34515175 -140.62417975 226.73385342 -139.32397461 219.50793457 C-137.7237131 215.29895021 -135.55137991 211.58800622 -133.19897461 207.75793457 C-132.56733398 206.68156738 -131.93569336 205.6052002 -131.28491211 204.49621582 C-129.96744381 202.25599691 -128.63887885 200.02226867 -127.29956055 197.79504395 C-124.84211611 193.70618682 -122.44157596 189.58572799 -120.04321289 185.46203613 C-118.89134987 183.48283385 -117.73603943 181.50563412 -116.57739258 179.53039551 C-112.40120751 172.40610986 -108.33970834 165.22370611 -104.32397461 158.00793457 C-99.18766072 148.77862055 -93.92184926 139.63556484 -88.57397461 130.52746582 C-84.40153501 123.40265267 -80.33902217 116.22247316 -76.32397461 109.00793457 C-71.18766072 99.77862055 -65.92184926 90.63556484 -60.57397461 81.52746582 C-56.40153292 74.4026491 -52.3391684 67.22239442 -48.32397461 60.00793457 C-43.11774347 50.65698645 -37.80919665 41.37329376 -32.38061523 32.14953613 C-29.60563052 27.43394773 -26.86286753 22.70793896 -24.21069336 17.92199707 C-23.72173584 17.04849609 -23.23277832 16.17499512 -22.72900391 15.27502441 C-21.82426875 13.65420435 -20.93029743 12.02730473 -20.04980469 10.39318848 C-19.64528076 9.67308594 -19.24075684 8.9529834 -18.82397461 8.21105957 C-18.48366211 7.58876465 -18.14334961 6.96646973 -17.79272461 6.32531738 C-12.75643267 0.09357583 -7.53845425 -0.06957961 0 0 Z " fill="#DA0074" transform="translate(139.323974609375,30.4920654296875)"/>
<path d="M0 0 C0.93469809 0.00184359 1.86939617 0.00368717 2.83241844 0.00558662 C4.43943878 0.00146263 4.43943878 0.00146263 6.07892418 -0.00274467 C7.25927742 0.00444588 8.43963066 0.01163643 9.65575218 0.01904488 C11.51424545 0.0186068 11.51424545 0.0186068 13.41028404 0.01815987 C16.81304422 0.01931662 20.21556339 0.02936495 23.61828089 0.04330778 C27.17237994 0.05578828 30.72648201 0.05698352 34.28059959 0.0593586 C41.01313947 0.06558127 47.7456146 0.08200269 54.47812593 0.10205758 C63.57412719 0.1285662 72.67014609 0.13938286 81.76617622 0.15106201 C96.10099877 0.16988277 110.43568465 0.20972314 124.77049828 0.24609566 C124.77049828 29.94609566 124.77049828 59.64609566 124.77049828 90.24609566 C148.47978796 90.08793056 148.47978796 90.08793056 172.18871117 89.88574409 C176.79088402 89.86767769 176.79088402 89.86767769 178.95041466 89.86432076 C180.44765551 89.85820806 181.94487757 89.84420123 183.44199181 89.82379341 C185.71988802 89.79431453 187.99658899 89.79047795 190.27464867 89.79199409 C191.55594154 89.78311165 192.83723442 89.7742292 194.15735435 89.76507759 C199.17846539 90.4335384 203.10235807 92.26802245 206.44457054 96.23120308 C206.82154076 96.93092232 207.19851097 97.63064156 207.58690453 98.35156441 C208.03348412 99.15706734 208.48006371 99.96257027 208.94017601 100.79248238 C209.39980736 101.66404976 209.85943871 102.53561714 210.33299828 103.43359566 C210.83839134 104.35414742 211.34378441 105.27469917 211.86449242 106.22314644 C212.94979124 108.2004785 214.02794983 110.18174339 215.09959984 112.16650581 C217.3406214 116.29687489 219.64282384 120.39162832 221.94603539 124.48755074 C223.72504735 127.65141641 225.49646161 130.8194412 227.26659203 133.98828316 C230.58292854 139.91796241 233.92295614 145.83399063 237.27049828 151.74609566 C242.38129977 160.77375324 247.456869 169.82067737 252.52025414 178.87500191 C257.12978056 187.11324961 261.76750028 195.33528432 266.4208889 203.54883003 C267.4081587 205.29219779 268.38969143 207.03883019 269.36473656 208.78906441 C270.28586219 210.39903459 271.24701837 211.98689496 272.25047874 213.54687691 C275.72180792 219.11270059 277.04102637 223.70746292 275.77049828 230.24609566 C274.40351708 233.87448492 272.56392547 237.10770385 270.58299828 240.43359566 C270.04271996 241.38065376 269.50244164 242.32771187 268.94579124 243.3034687 C267.80675817 245.29685862 266.65881037 247.28517855 265.50243187 249.26855659 C263.29288649 253.06720552 261.14073206 256.8967346 258.98802757 260.72778511 C257.37301109 263.5985679 255.74856978 266.46384191 254.12206078 269.32812691 C250.64748083 275.45403782 247.20705472 281.59879489 243.77049828 287.74609566 C238.76615176 296.69466283 233.7362574 305.62826348 228.68260765 314.54907417 C225.7795541 319.67771349 222.89122083 324.81412292 220.02049828 329.96093941 C219.39465843 331.08242378 218.76881859 332.20390816 218.1240139 333.35937691 C216.92301302 335.51333211 215.72368741 337.66822261 214.52635765 339.82422066 C213.44497901 341.76333207 212.35616261 343.69832061 211.25877953 345.62841988 C210.32183446 347.27637345 209.40022596 348.93323563 208.50096703 350.60205269 C208.10522484 351.30056343 207.70948265 351.99907417 207.30174828 352.71875191 C206.97754906 353.31051216 206.65334984 353.90227242 206.3193264 354.5119648 C203.02093508 358.20497766 199.68154827 360.00447369 194.81550217 360.61970806 C191.09693042 360.76708683 187.38901016 360.78739026 183.66869164 360.76367378 C182.23898164 360.76909985 180.80927725 360.77622522 179.37958336 360.78491402 C175.5118093 360.8030914 171.6444638 360.79610368 167.77668262 360.78339767 C163.72224668 360.77324285 159.66784648 360.78267005 155.61340904 360.78894234 C148.80690002 360.79621071 142.00056486 360.78665153 135.19408226 360.76758003 C127.33171065 360.74580399 119.46975385 360.75287104 111.60739225 360.77488565 C104.84794157 360.79305239 98.08861557 360.79559205 91.32914835 360.78513098 C87.29587192 360.77890414 83.26279033 360.77803818 79.22952652 360.79127693 C75.43805443 360.80285381 71.64711603 360.79477683 67.85570145 360.77169991 C66.4665878 360.76642291 65.07742904 360.76790938 63.68833351 360.77675056 C50.68755348 360.85185204 50.68755348 360.85185204 45.77049828 356.24609566 C44.1005764 354.29101753 44.1005764 354.29101753 42.80174828 352.21484566 C42.30545921 351.42465034 41.80917015 350.63445503 41.29784203 349.82031441 C38.54028932 345.17267442 35.88250759 340.47692987 33.27049828 335.74609566 C32.03230026 333.51948687 30.79401658 331.29292572 29.55565453 329.06640816 C28.92804222 327.93493355 28.30042992 326.80345894 27.65379906 325.63769722 C24.68509763 320.2914177 21.69682833 314.95614057 18.70799828 309.62109566 C18.12856468 308.58597847 17.54913109 307.55086128 16.9521389 306.48437691 C13.07510728 299.56203441 9.17862303 292.65092439 5.27049828 285.74609566 C-3.56429793 270.13615726 -12.32548438 254.48487496 -21.04200172 238.80859566 C-21.45667702 238.0631147 -21.87135231 237.31763374 -22.29859352 236.54956245 C-25.29238784 231.15739268 -27.22909261 227.51625665 -26.22950172 221.24609566 C-24.65330482 217.02725373 -22.44498487 213.1557718 -20.22950172 209.24609566 C-19.82151344 208.52293159 -19.41352516 207.79976753 -18.9931736 207.05468941 C-16.53620961 202.71298012 -14.05557091 198.38525859 -11.56543922 194.06250191 C-8.11626715 188.06566906 -4.72959236 182.03486308 -1.35450172 175.99609566 C-0.77063698 174.95187447 -0.18677223 173.90765327 0.41478539 172.83178902 C1.60476938 170.70279887 2.79446556 168.57364782 3.98387718 166.44433784 C13.53226046 149.35171406 23.09270466 132.26587349 32.77049828 115.24609566 C33.54731956 113.87807808 33.54731956 113.87807808 34.33983421 112.48242378 C35.83235933 109.85896954 37.33141965 107.23937633 38.83299828 104.62109566 C39.27409935 103.84524117 39.71520042 103.06938667 40.1696682 102.27002144 C40.58579369 101.54798531 41.00191917 100.82594917 41.43065453 100.08203316 C41.7878054 99.45861031 42.14495628 98.83518745 42.51292992 98.192873 C44.10051382 95.73521544 45.91634905 93.50682442 47.77049828 91.24609566 C47.36436302 90.56434273 46.95822777 89.8825898 46.53978539 89.18017769 C38.36770378 75.45199688 30.26022901 61.69178718 22.29564476 47.84179878 C16.38127086 37.55756402 10.40567219 27.30961848 4.41893578 17.06738472 C1.53328385 12.12861196 -1.34796121 7.18726801 -4.22950172 2.24609566 C-2.22950172 0.24609566 -2.22950172 0.24609566 0 0 Z " fill="#FC738B" transform="translate(131.22950172424316,30.753904342651367)"/>
<path d="M0 0 C0.3810791 0.66193359 0.7621582 1.32386719 1.15478516 2.00585938 C9.80581573 17.02820467 18.4969348 32.02605837 27.24414062 46.99267578 C29.0562413 50.09632652 30.8645351 53.20216852 32.671875 56.30859375 C39.04049597 67.251189 45.44002969 78.17084266 52 89 C51.65461182 89.42015381 51.30922363 89.84030762 50.95336914 90.27319336 C46.41981303 96.02666102 42.92351686 102.25362798 39.45355225 108.68078613 C38.05712758 111.26694415 36.64678022 113.84541881 35.23706055 116.42434692 C34.51945166 117.73720433 33.80249126 119.0504164 33.08618164 120.36398315 C29.90573796 126.19158678 26.65411574 131.97735292 23.375 137.75 C18.8913439 145.65267766 14.43415704 153.56943412 10 161.5 C-8.60266366 194.74939608 -8.60266366 194.74939608 -17.6628418 210.15185547 C-18.08863525 210.88033691 -18.51442871 211.60881836 -18.953125 212.359375 C-19.32598633 212.99327148 -19.69884766 213.62716797 -20.08300781 214.28027344 C-22.27452399 218.39024148 -22.60642204 222.45083069 -22 227 C-20.89794172 230.08101541 -19.36371011 232.84691156 -17.75 235.6875 C-17.30108398 236.50782715 -16.85216797 237.3281543 -16.38964844 238.17333984 C-14.94662151 240.79409493 -13.47742969 243.39850225 -12 246 C-11.52949219 246.83257324 -11.05898437 247.66514648 -10.57421875 248.52294922 C-8.13244662 252.83556948 -5.66968188 257.13569893 -3.1953125 261.4296875 C0.20754461 267.34412708 3.54574329 273.29389266 6.875 279.25 C7.45918701 280.29478516 8.04337402 281.33957031 8.64526367 282.41601562 C9.83491671 284.54443916 11.02428723 286.67302062 12.21337891 288.80175781 C16.89224502 297.17742686 21.57791596 305.54927937 26.27099609 313.91699219 C27.43077825 315.9850138 28.58995069 318.05337747 29.74853516 320.12207031 C39.64026689 339.81912295 39.64026689 339.81912295 53 357 C52.56856689 357.38905518 52.13713379 357.77811035 51.69262695 358.17895508 C49.68433981 360.33960903 48.37673119 362.57137086 46.91796875 365.13671875 C46.32306641 366.17634766 45.72816406 367.21597656 45.11523438 368.28710938 C44.47908203 369.40923828 43.84292969 370.53136719 43.1875 371.6875 C42.17347826 373.46333743 41.15769471 375.23815984 40.14187622 377.01296997 C39.44753409 378.22641774 38.75375275 379.44018655 38.06051636 380.65426636 C34.74508138 386.45849188 31.37699143 392.23139625 28 398 C24.31642849 404.30019561 20.64399368 410.60650543 17 416.9296875 C16.66508545 417.51083313 16.3301709 418.09197876 15.98510742 418.69073486 C14.37126114 421.49211183 12.75903111 424.29440788 11.1484375 427.09765625 C7.49910542 433.43977743 3.78987818 439.740801 0 446 C-4.44848889 444.65775503 -5.96903294 443.12931087 -8.20703125 439.1015625 C-8.78509521 438.07949707 -9.36315918 437.05743164 -9.95874023 436.00439453 C-10.57048096 434.88919434 -11.18222168 433.77399414 -11.8125 432.625 C-12.46995511 431.45213115 -13.12892092 430.28010799 -13.78930664 429.10888672 C-15.17329038 426.65053474 -16.54975961 424.18819433 -17.92089844 421.72265625 C-21.20580536 415.82601996 -24.57927449 409.98009202 -27.9375 404.125 C-29.28122533 401.77416594 -30.623128 399.42229396 -31.96484375 397.0703125 C-35.64098053 390.62805905 -39.32051444 384.18775153 -43.00100708 377.74798584 C-44.66748282 374.83207328 -46.33372982 371.91603002 -48 369 C-48.66666557 367.83333271 -49.33333224 366.66666604 -50 365.5 C-102.06445312 274.38720703 -102.06445312 274.38720703 -103.10241699 272.57058716 C-103.79336869 271.36154355 -104.4845301 270.15261976 -105.17590332 268.94381714 C-106.87091754 265.97964923 -108.56243162 263.01360135 -110.24609375 260.04296875 C-113.31277139 254.64414704 -116.41543039 249.28297557 -119.671875 243.99609375 C-120.23616211 243.06273193 -120.80044922 242.12937012 -121.38183594 241.16772461 C-122.41542022 239.46374521 -123.46897171 237.77161445 -124.54785156 236.09594727 C-128.30533407 229.83721718 -129.30020514 224.22591885 -128 217 C-126.3997385 212.79101564 -124.2274053 209.08007165 -121.875 205.25 C-121.24335937 204.17363281 -120.61171875 203.09726563 -119.9609375 201.98828125 C-118.6434692 199.74806234 -117.31490424 197.5143341 -115.97558594 195.28710938 C-113.5181415 191.19825225 -111.11760135 187.07779342 -108.71923828 182.95410156 C-107.56737526 180.97489928 -106.41206482 178.99769955 -105.25341797 177.02246094 C-101.0772329 169.89817529 -97.01573373 162.71577154 -93 155.5 C-87.86368611 146.27068598 -82.59787465 137.12763027 -77.25 128.01953125 C-73.07756041 120.8947181 -69.01504756 113.71453859 -65 106.5 C-59.86368611 97.27068598 -54.59787465 88.12763027 -49.25 79.01953125 C-45.07755831 71.89471453 -41.01519379 64.71445985 -37 57.5 C-31.24410901 47.16180398 -25.33668399 36.9211181 -19.34375 26.71875 C-17.1274708 22.94286693 -14.9408599 19.15232313 -12.78125 15.34375 C-12.27875732 14.46122559 -11.77626465 13.57870117 -11.25854492 12.66943359 C-10.32075574 11.01931729 -9.38828912 9.36616028 -8.4621582 7.70947266 C-8.04796631 6.9829248 -7.63377441 6.25637695 -7.20703125 5.5078125 C-6.8510083 4.87504395 -6.49498535 4.24227539 -6.12817383 3.59033203 C-4.47556402 1.26072798 -2.90974173 0 0 0 Z " fill="#E8398B" transform="translate(128,33)"/>
<path d="M0 0 C73 0 73 0 80 4 C81.67407227 5.98510742 81.67407227 5.98510742 82.81640625 8.10546875 C83.26298584 8.91097168 83.70956543 9.71647461 84.16967773 10.54638672 C84.62930908 11.4179541 85.08894043 12.28952148 85.5625 13.1875 C86.06789307 14.10805176 86.57328613 15.02860352 87.09399414 15.97705078 C88.17929297 17.95438284 89.25745156 19.93564773 90.32910156 21.92041016 C92.57012312 26.05077923 94.87232557 30.14553266 97.17553711 34.24145508 C98.95454907 37.40532075 100.72596333 40.57334554 102.49609375 43.7421875 C105.81243026 49.67186675 109.15245786 55.58789497 112.5 61.5 C117.6108015 70.52765758 122.68637072 79.57458172 127.74975586 88.62890625 C132.35928228 96.86715395 136.99700201 105.08918866 141.65039062 113.30273438 C142.63766043 115.04610214 143.61919316 116.79273453 144.59423828 118.54296875 C145.51536391 120.15293893 146.47652009 121.7407993 147.47998047 123.30078125 C150.95130965 128.86660494 152.2705281 133.46136726 151 140 C149.6330188 143.62838926 147.7934272 146.8616082 145.8125 150.1875 C145.27222168 151.13455811 144.73194336 152.08161621 144.17529297 153.05737305 C143.0362599 155.05076296 141.8883121 157.0390829 140.73193359 159.02246094 C138.52238821 162.82110986 136.37023379 166.65063895 134.2175293 170.48168945 C132.60251281 173.35247225 130.9780715 176.21774625 129.3515625 179.08203125 C125.87698255 185.20794217 122.43655645 191.35269923 119 197.5 C113.99565349 206.44856717 108.96575912 215.38216782 103.91210938 224.30297852 C101.00905583 229.43161783 98.12072255 234.56802726 95.25 239.71484375 C94.31124023 241.39707031 94.31124023 241.39707031 93.35351562 243.11328125 C92.15251475 245.26723646 90.95318914 247.42212695 89.75585938 249.578125 C88.67448073 251.51723641 87.58566434 253.45222495 86.48828125 255.38232422 C85.55133619 257.03027779 84.62972768 258.68713997 83.73046875 260.35595703 C83.33472656 261.05446777 82.93898438 261.75297852 82.53125 262.47265625 C82.20705078 263.0644165 81.88285156 263.65617676 81.54882812 264.26586914 C80 266 80 266 73 270 C48.91 270 24.82 270 0 270 C0 180.9 0 91.8 0 0 Z " fill="#E7398A" transform="translate(256,121)"/>
<path d="M0 0 C31.60653506 -0.16121214 31.60653506 -0.16121214 44.8515625 -0.1953125 C53.99683606 -0.21904679 63.1419622 -0.24694794 72.28710938 -0.30175781 C78.94750196 -0.34165667 85.60777495 -0.36744014 92.26828372 -0.37635398 C95.79425226 -0.38156365 99.31987869 -0.39378665 102.84573746 -0.42292023 C106.7841045 -0.45519761 110.72213841 -0.45595744 114.66064453 -0.45410156 C115.82661667 -0.46848267 116.99258881 -0.48286377 118.19389343 -0.49768066 C124.43052767 -0.46583477 128.29634985 -0.26141092 133 4 C134.80419922 6.39648437 134.80419922 6.39648437 136.3046875 9.09375 C136.87952881 10.10937012 137.45437012 11.12499023 138.04663086 12.17138672 C138.95167358 13.81905029 138.95167358 13.81905029 139.875 15.5 C140.52794822 16.6637267 141.18235817 17.82663431 141.83813477 18.98876953 C143.21101239 21.42541733 144.5766228 23.86592917 145.93701172 26.30957031 C149.21854209 32.19432049 152.58566624 38.03010081 155.9375 43.875 C157.28118557 46.22585672 158.62310863 48.57771716 159.96484375 50.9296875 C163.64098645 57.37193757 167.32051444 63.81224847 171.00100708 70.25201416 C172.66748282 73.16792672 174.33372982 76.08396998 176 79 C176.66666557 80.16666729 177.33333224 81.33333396 178 82.5 C230.06445312 173.61279297 230.06445312 173.61279297 231.10241699 175.42932129 C231.7934739 176.63860993 232.48463568 177.84783864 233.17590332 179.05700684 C234.86843641 182.01788779 236.55924354 184.97972492 238.24609375 187.94384766 C241.3495606 193.39117533 244.4746608 198.8219211 247.671875 204.21484375 C248.23616211 205.17527588 248.80044922 206.13570801 249.38183594 207.12524414 C250.4264297 208.90032857 251.48108455 210.66954831 252.54785156 212.43139648 C253.00643555 213.21458252 253.46501953 213.99776855 253.9375 214.8046875 C254.33839844 215.47483887 254.73929688 216.14499023 255.15234375 216.83544922 C256 219 256 219 256 225 C221.35 225 186.7 225 151 225 C150.01 222.03 149.02 219.06 148 216 C146.65269473 213.10742376 146.65269473 213.10742376 145.13671875 210.53125 C144.58685303 209.56106934 144.0369873 208.59088867 143.47045898 207.59130859 C142.88208252 206.57117676 142.29370605 205.55104492 141.6875 204.5 C140.42164765 202.27356675 139.15602923 200.04700048 137.890625 197.8203125 C137.24416016 196.68883789 136.59769531 195.55736328 135.93164062 194.39160156 C132.90124533 189.07079121 129.9216224 183.72184963 126.9375 178.375 C121.9479469 169.45779619 116.93116681 160.55631982 111.89428711 151.66577148 C109.08998659 146.7120873 106.29971489 141.75115666 103.53125 136.77734375 C102.35434595 134.66396265 101.17726256 132.55068141 100 130.4375 C99.42620605 129.4074585 98.85241211 128.37741699 98.26123047 127.31616211 C93.62455223 119.0309822 88.82256394 110.85095392 83.91015625 102.72631836 C83.39582031 101.86917236 82.88148438 101.01202637 82.3515625 100.12890625 C81.89604004 99.37681885 81.44051758 98.62473145 80.97119141 97.84985352 C80 96 80 96 80 94 C75.13591101 91.4840919 71.44853751 90.86082575 65.95825195 90.79467773 C64.87232522 90.77962865 64.87232522 90.77962865 63.76446056 90.76427555 C61.42243328 90.73290835 59.08038906 90.70812678 56.73828125 90.68359375 C55.29178314 90.66518866 53.84529046 90.64635189 52.39880371 90.6270752 C47.03676672 90.55864898 41.67462568 90.49858245 36.3125 90.4375 C18.3378125 90.2209375 18.3378125 90.2209375 0 90 C0 60.3 0 30.6 0 0 Z " fill="#B31F66" transform="translate(256,31)"/>
<path d="M0 0 C0.3810791 0.66193359 0.7621582 1.32386719 1.15478516 2.00585938 C9.80581573 17.02820467 18.4969348 32.02605837 27.24414062 46.99267578 C29.0562413 50.09632652 30.8645351 53.20216852 32.671875 56.30859375 C39.04049597 67.251189 45.44002969 78.17084266 52 89 C51.65461182 89.42015381 51.30922363 89.84030762 50.95336914 90.27319336 C46.41981303 96.02666102 42.92351686 102.25362798 39.45355225 108.68078613 C38.05712758 111.26694415 36.64678022 113.84541881 35.23706055 116.42434692 C34.51945166 117.73720433 33.80249126 119.0504164 33.08618164 120.36398315 C29.90573796 126.19158678 26.65411574 131.97735292 23.375 137.75 C18.8913439 145.65267766 14.43415704 153.56943412 10 161.5 C5.45015102 169.63215427 0.89236973 177.75970839 -3.6875 185.875 C-4.21706299 186.81472656 -4.74662598 187.75445312 -5.29223633 188.72265625 C-7.8848389 193.31039907 -10.5057088 197.87780609 -13.1875 202.4140625 C-13.69321533 203.27273926 -14.19893066 204.13141602 -14.7199707 205.01611328 C-15.66462457 206.61500006 -16.61578692 208.21006852 -17.57495117 209.80029297 C-17.99752197 210.51588379 -18.42009277 211.23147461 -18.85546875 211.96875 C-19.22309326 212.58169922 -19.59071777 213.19464844 -19.96948242 213.82617188 C-21.34900901 216.73621801 -22.11526735 219.90343573 -23 223 C-57.65 223 -92.3 223 -128 223 C-128 217.40374042 -127.98828452 216.22910274 -125.4296875 211.7890625 C-124.87023437 210.80421875 -124.31078125 209.819375 -123.734375 208.8046875 C-123.12078125 207.75539062 -122.5071875 206.70609375 -121.875 205.625 C-121.24335937 204.5215625 -120.61171875 203.418125 -119.9609375 202.28125 C-117.98858401 198.845285 -115.99753161 195.42137768 -114 192 C-113.40219727 190.97358398 -112.80439453 189.94716797 -112.18847656 188.88964844 C-109.88179523 184.93146081 -107.57221881 180.97502758 -105.25341797 177.02392578 C-101.07854593 169.8983923 -97.01594118 162.71614431 -93 155.5 C-87.86368611 146.27068598 -82.59787465 137.12763027 -77.25 128.01953125 C-73.07756041 120.8947181 -69.01504756 113.71453859 -65 106.5 C-59.86368611 97.27068598 -54.59787465 88.12763027 -49.25 79.01953125 C-45.07755831 71.89471453 -41.01519379 64.71445985 -37 57.5 C-31.24410901 47.16180398 -25.33668399 36.9211181 -19.34375 26.71875 C-17.1274708 22.94286693 -14.9408599 19.15232313 -12.78125 15.34375 C-12.27875732 14.46122559 -11.77626465 13.57870117 -11.25854492 12.66943359 C-10.32075574 11.01931729 -9.38828912 9.36616028 -8.4621582 7.70947266 C-8.04796631 6.9829248 -7.63377441 6.25637695 -7.20703125 5.5078125 C-6.8510083 4.87504395 -6.49498535 4.24227539 -6.12817383 3.59033203 C-4.47556402 1.26072798 -2.90974173 0 0 0 Z " fill="#DB0073" transform="translate(128,33)"/>
<path d="M0 0 C0.26514404 0.49064941 0.53028809 0.98129883 0.8034668 1.48681641 C7.6944302 14.20565829 14.90216524 26.70225602 22.29980469 39.13183594 C25.20424264 44.031511 28.0709316 48.95310325 30.9375 53.875 C31.50847412 54.85500977 32.07944824 55.83501953 32.66772461 56.84472656 C33.83611265 58.85048392 35.00432353 60.85634449 36.17236328 62.86230469 C39.40370065 68.40987987 42.63965709 73.95476025 45.875 79.5 C47.05991518 81.53123871 48.24481288 83.56248762 49.4296875 85.59375 C49.92710449 86.44646484 50.42452148 87.29917969 50.93701172 88.17773438 C51.28779785 88.77908203 51.63858398 89.38042969 52 90 C49.59482889 92.40517111 49.07295748 92.25029855 45.79267883 92.25168228 C44.46138207 92.25950552 44.46138207 92.25950552 43.10319042 92.26748681 C42.12207948 92.26302537 41.14096853 92.25856392 40.13012695 92.25396729 C38.57384693 92.25864726 38.57384693 92.25864726 36.9861269 92.26342177 C33.48678833 92.27144078 29.98762131 92.26506295 26.48828125 92.25878906 C23.98879901 92.26149719 21.48931757 92.26505711 18.98983765 92.26940918 C12.89200167 92.27760532 6.79423377 92.27637369 0.6964004 92.2705839 C-4.2577729 92.26607403 -9.21193241 92.26545157 -14.16610718 92.26763153 C-15.22224717 92.26809123 -15.22224717 92.26809123 -16.29972333 92.26856022 C-17.7299068 92.26919964 -19.16009027 92.26984807 -20.59027374 92.2705054 C-34.01298425 92.27621364 -47.43566748 92.26964307 -60.85837352 92.25890467 C-72.3850882 92.2499687 -83.91176261 92.25152061 -95.43847656 92.26074219 C-108.81192215 92.27143612 -122.1853438 92.27566427 -135.55879307 92.26951766 C-136.98382632 92.26888054 -138.40885957 92.2682518 -139.83389282 92.26763153 C-140.88571173 92.2671687 -140.88571173 92.2671687 -141.95877951 92.26669653 C-146.90916084 92.26496695 -151.85952703 92.26789033 -156.80990601 92.27259064 C-163.46809488 92.27877329 -170.1262192 92.27439528 -176.78440475 92.26280212 C-179.23465218 92.26014734 -181.68490598 92.26093446 -184.13515091 92.26532745 C-187.46689775 92.27075216 -190.79839616 92.26398631 -194.13012695 92.25396729 C-195.1112379 92.25842873 -196.09234884 92.26289017 -197.10319042 92.26748681 C-197.9907216 92.26227132 -198.87825277 92.25705582 -199.79267883 92.25168228 C-200.56242696 92.25135758 -201.33217508 92.25103287 -202.12524891 92.25069833 C-204 92 -204 92 -206 90 C-196.96596112 74.30789357 -187.89237527 58.64005778 -178.75585938 43.00732422 C-176.9437587 39.90367348 -175.1354649 36.79783148 -173.328125 33.69140625 C-172.718479 32.6442041 -172.10883301 31.59700195 -171.48071289 30.51806641 C-170.33854202 28.55592726 -169.19703136 26.59340355 -168.05639648 24.63037109 C-167.00007897 22.81683615 -165.91103244 21.02190308 -164.78755188 19.24919128 C-162.85639003 16.01350489 -162.85639003 16.01350489 -161.87640381 12.19566345 C-160.27513221 7.42907971 -158.30273112 3.78538683 -154 1 C-144.07105774 -1.72626361 -133.07347258 -0.76702995 -122.86395383 -0.4879775 C-118.69062187 -0.39008661 -114.51705885 -0.37870757 -110.34275818 -0.35818481 C-102.44615122 -0.3065079 -94.5526952 -0.17925786 -86.6575231 -0.02374375 C-76.79118823 0.16698698 -66.92429285 0.26192092 -57.05664062 0.35546875 C-46.99242588 0.45286043 -36.92890561 0.55898932 -26.86561584 0.72854614 C-25.32517076 0.7533912 -23.78472482 0.77818303 -22.24427795 0.80291748 C-19.38540316 0.84895496 -16.52674972 0.90152197 -13.6680603 0.95779419 C-12.41619431 0.97809692 -11.16432831 0.99839966 -9.87452698 1.01931763 C-8.78190835 1.0397217 -7.68928972 1.06012577 -6.56356144 1.08114815 C-4.01561825 1.00049439 -2.48430904 0 0 0 Z " fill="#B31E66" transform="translate(333,389)"/>
<path d="M0 0 C0.93469809 0.00184359 1.86939617 0.00368717 2.83241844 0.00558662 C4.43943878 0.00146263 4.43943878 0.00146263 6.07892418 -0.00274467 C7.25927742 0.00444588 8.43963066 0.01163643 9.65575218 0.01904488 C11.51424545 0.0186068 11.51424545 0.0186068 13.41028404 0.01815987 C16.81304422 0.01931662 20.21556339 0.02936495 23.61828089 0.04330778 C27.17237994 0.05578828 30.72648201 0.05698352 34.28059959 0.0593586 C41.01313947 0.06558127 47.7456146 0.08200269 54.47812593 0.10205758 C63.57412719 0.1285662 72.67014609 0.13938286 81.76617622 0.15106201 C96.10099877 0.16988277 110.43568465 0.20972314 124.77049828 0.24609566 C124.77049828 29.94609566 124.77049828 59.64609566 124.77049828 90.24609566 C88.45799828 90.68359566 88.45799828 90.68359566 76.99193382 90.81421089 C73.60036207 90.8574638 73.60036207 90.8574638 70.20880699 90.90199471 C68.69812693 90.92121644 67.18742197 90.93853844 65.6767025 90.95436287 C63.38846934 90.9787003 61.1003876 91.00906368 58.81224632 91.04077339 C57.522071 91.05631767 56.23189568 91.07186195 54.90262413 91.08787727 C51.73998719 91.10739733 51.73998719 91.10739733 48.77049828 92.24609566 C44.26036484 85.75376171 40.273303 79.03180527 36.3957119 72.14618111 C34.64788509 69.04430181 32.88758581 65.94953296 31.12596703 62.85547066 C30.76461159 62.22075844 30.40325615 61.58604622 30.03095055 60.9321003 C26.33154178 54.4503373 22.52820615 48.0324133 18.70799828 41.62109566 C10.93292239 28.56918078 3.32834724 15.42468403 -4.22950172 2.24609566 C-2.22950172 0.24609566 -2.22950172 0.24609566 0 0 Z " fill="#E7388A" transform="translate(131.22950172424316,30.753904342651367)"/>
<path d="M0 0 C31.76774719 -0.08060607 31.76774719 -0.08060607 45.046875 -0.09765625 C54.2275617 -0.10953851 63.40821179 -0.12353147 72.58886719 -0.15087891 C79.2741243 -0.17078357 85.95935179 -0.18370947 92.6446377 -0.18817699 C96.18601498 -0.19078935 99.72730751 -0.19694922 103.26865768 -0.21146011 C107.21737025 -0.22750966 111.16599913 -0.22798157 115.11474609 -0.22705078 C116.88527596 -0.23783661 116.88527596 -0.23783661 118.6915741 -0.24884033 C119.76292099 -0.246091 120.83426788 -0.24334167 121.93807983 -0.24050903 C122.87277792 -0.24235262 123.80747601 -0.24419621 124.77049828 -0.24609566 C127 0 127 0 129 2 C119.96596112 17.69210643 110.89237527 33.35994222 101.75585938 48.99267578 C99.9437587 52.09632652 98.1354649 55.20216852 96.328125 58.30859375 C95.718479 59.3557959 95.10883301 60.40299805 94.48071289 61.48193359 C93.33854202 63.44407274 92.19703136 65.40659645 91.05639648 67.36962891 C90.00555392 69.1737642 88.93724672 70.96786855 87.84965515 72.75009155 C86.50249004 75.11710753 85.39257682 77.33153913 84.31747437 79.81079102 C82.39623916 83.95526766 80.40719741 87.88127685 77 91 C71.04394064 93.01534255 65.48584965 92.63153932 59.27734375 92.24609375 C57.75770232 92.2040945 56.23785544 92.1689573 54.71789551 92.14074707 C49.12157102 91.98923603 43.52945433 91.70554863 37.9375 91.4375 C19.1584375 90.7259375 19.1584375 90.7259375 0 90 C0 60.3 0 30.6 0 0 Z " fill="#DA0073" transform="translate(256,31)"/>
<path d="M0 0 C1.632975 0.09730133 3.2658318 0.19660823 4.89855957 0.29797363 C6.418201 0.33997288 7.93804788 0.37511008 9.45800781 0.40332031 C15.0543323 0.55483135 20.64644899 0.83851875 26.23840332 1.10656738 C45.01746582 1.81812988 45.01746582 1.81812988 64.17590332 2.54406738 C64.17590332 32.24406738 64.17590332 61.94406738 64.17590332 92.54406738 C32.40815613 92.62467345 32.40815613 92.62467345 19.12902832 92.64172363 C9.94834162 92.65360589 0.76769153 92.66759885 -8.41296387 92.69494629 C-15.09822098 92.71485095 -21.78344847 92.72777685 -28.46873438 92.73224437 C-32.01011166 92.73485673 -35.55140419 92.74101661 -39.09275436 92.7555275 C-43.04146693 92.77157705 -46.99009581 92.77204895 -50.93884277 92.77111816 C-52.70937263 92.78190399 -52.70937263 92.78190399 -54.51567078 92.79290771 C-55.58701767 92.79015839 -56.65836456 92.78740906 -57.76217651 92.78457642 C-59.16422364 92.78734179 -59.16422364 92.78734179 -60.59459496 92.79016304 C-62.82409668 92.54406738 -62.82409668 92.54406738 -64.82409668 90.54406738 C-55.7900578 74.85196095 -46.71647195 59.18412516 -37.57995605 43.5513916 C-35.76785538 40.44774087 -33.95956158 37.34189886 -32.15222168 34.23547363 C-31.54257568 33.18827148 -30.93292969 32.14106934 -30.30480957 31.06213379 C-29.1626387 29.09999464 -28.02112804 27.13747093 -26.88049316 25.17443848 C-25.8296506 23.37030318 -24.7613434 21.57619883 -23.67375183 19.79397583 C-22.32658672 17.42695986 -21.2166735 15.21252825 -20.14157104 12.73327637 C-15.52682105 2.77836639 -11.08953524 -0.33624304 0 0 Z " fill="#DB0074" transform="translate(191.8240966796875,388.4559326171875)"/>
</svg>
