<?xml version="1.0" encoding="UTF-8"?>
<svg version="1.1" xmlns="http://www.w3.org/2000/svg" width="512" height="512">
<path d="M0 0 C1.37152643 -0.00701834 2.7430525 -0.01410519 4.11457825 -0.02125549 C8.47743186 -0.04067849 12.84023252 -0.04568966 17.203125 -0.046875 C17.94556835 -0.04731686 18.6880117 -0.04775871 19.45295334 -0.04821396 C41.26644732 -0.05502804 62.80372538 0.1760149 84.453125 3.203125 C85.80115952 3.38266391 87.14930856 3.56134457 88.49755859 3.73925781 C141.1255357 10.74950235 192.96927069 24.14349099 241.49804688 45.88134766 C244.56307193 47.25230318 247.63993919 48.59391829 250.71875 49.93359375 C252.71425612 50.81348564 254.70907912 51.69492885 256.703125 52.578125 C258.05277344 53.16726685 258.05277344 53.16726685 259.4296875 53.76831055 C265.10595739 56.32972733 270.03310106 58.90881496 273.8046875 64.04296875 C292.31490316 125.70651852 245.285918 231.48011694 208.33956909 305.94055176 C199.89221696 321.52049933 190.56031193 336.64608374 180.453125 351.203125 C180.00437012 351.85619629 179.55561523 352.50926758 179.09326172 353.18212891 C168.80952555 368.13036205 157.79985008 382.49305974 145.96875 396.25 C143.55134346 399.08782507 141.21726545 401.97825689 138.890625 404.890625 C135.12223358 409.52864521 131.04496642 413.71316068 126.7734375 417.88671875 C124.8093731 419.84747665 122.99253499 421.83550665 121.203125 423.953125 C114.00033763 432.35352547 105.94013061 440.29368208 97.49609375 447.44140625 C95.34801659 449.29376342 93.26723964 451.21133784 91.18896484 453.14135742 C86.09545548 457.86783213 80.90544374 462.40460533 75.48828125 466.76171875 C73.21140567 468.59318237 70.95090408 470.43882158 68.69921875 472.30078125 C60.80146003 478.81426777 52.81172182 485.07062865 44.36914062 490.86279297 C42.21773864 492.36778748 40.11118597 493.92742792 38 495.48828125 C23.19149193 506.23619128 23.19149193 506.23619128 15.640625 505.38671875 C7.77441671 502.46581053 1.11862942 497.19171404 -5.546875 492.203125 C-6.6670694 491.38548518 -7.7880656 490.56894179 -8.91015625 489.75390625 C-11.81954707 487.60750799 -14.68590177 485.41352076 -17.546875 483.203125 C-18.59101563 482.41421875 -19.63515625 481.6253125 -20.7109375 480.8125 C-27.96058687 475.32475223 -34.95468012 469.58661561 -41.84814453 463.65917969 C-43.635742 462.12695329 -45.43227519 460.60571021 -47.23046875 459.0859375 C-52.67499968 454.47252328 -58.04918818 449.88791847 -63.0078125 444.74609375 C-64.61812989 443.13168926 -66.30510446 441.67436522 -68.046875 440.203125 C-76.87105084 432.58774037 -85.30160792 424.11771062 -92.8203125 415.2109375 C-94.65838474 413.07345077 -96.56484984 411.00637177 -98.4831543 408.94091797 C-104.09750815 402.89117303 -109.38836513 396.64913073 -114.546875 390.203125 C-115.46927875 389.07228543 -116.39249696 387.94210985 -117.31640625 386.8125 C-138.43401907 360.87361038 -156.73375892 332.6571597 -172.546875 303.203125 C-173.00384766 302.36152832 -173.46082031 301.51993164 -173.93164062 300.65283203 C-210.69686287 232.78144576 -236.87123689 151.62381707 -238.046875 73.890625 C-238.06540527 73.16891113 -238.08393555 72.44719727 -238.10302734 71.70361328 C-238.04124801 66.76974624 -236.76377737 63.90569608 -233.546875 60.203125 C-231.19786492 58.65371561 -229.05327377 57.42243778 -226.546875 56.203125 C-225.82532227 55.83074707 -225.10376953 55.45836914 -224.36035156 55.07470703 C-163.52907833 23.9566887 -95.3109928 7.36063347 -27.546875 1.203125 C-26.12947525 1.07319656 -26.12947525 1.07319656 -24.68344116 0.94064331 C-16.44723712 0.24176026 -8.26350673 0.02856039 0 0 Z " fill="#FFED65" transform="translate(237.546875,3.796875)"/>
<path d="M0 0 C38.29938272 0 38.29938272 0 49.5 1.1875 C50.85056865 1.3213822 52.20115527 1.45508315 53.55175781 1.58862305 C111.77312278 7.53106429 169.56209463 21.72126095 223.04492188 45.67822266 C226.10994693 47.04917818 229.18681419 48.39079329 232.265625 49.73046875 C234.26113112 50.61036064 236.25595412 51.49180385 238.25 52.375 C239.14976562 52.76776123 240.04953125 53.16052246 240.9765625 53.56518555 C246.65283239 56.12660233 251.57997606 58.70568996 255.3515625 63.83984375 C273.86177816 125.50339352 226.832793 231.27699194 189.88644409 305.73742676 C181.43909196 321.31737433 172.10718693 336.44295874 162 351 C161.55124512 351.65307129 161.10249023 352.30614258 160.64013672 352.97900391 C150.35640055 367.92723705 139.34672508 382.28993474 127.515625 396.046875 C125.09821846 398.88470007 122.76414045 401.77513189 120.4375 404.6875 C116.66910858 409.32552021 112.59184142 413.51003568 108.3203125 417.68359375 C106.3562481 419.64435165 104.53940999 421.63238165 102.75 423.75 C95.54721263 432.15040047 87.48700561 440.09055708 79.04296875 447.23828125 C76.89489159 449.09063842 74.81411464 451.00821284 72.73583984 452.93823242 C67.64233048 457.66470713 62.45231874 462.20148033 57.03515625 466.55859375 C54.75828067 468.39005737 52.49777908 470.23569658 50.24609375 472.09765625 C42.35592461 478.60488344 34.37281776 484.86633952 25.94238281 490.65966797 C24.53554777 491.63044781 23.13458219 492.60975165 21.73730469 493.59423828 C19.33481098 495.28594949 16.91919976 496.95728903 14.5 498.625 C13.74605957 499.15875244 12.99211914 499.69250488 12.21533203 500.24243164 C11.49458496 500.73219482 10.77383789 501.22195801 10.03125 501.7265625 C9.39767578 502.16564941 8.76410156 502.60473633 8.11132812 503.05712891 C5.3425233 504.29361413 3.0021458 504.06168486 0 504 C-0.23483903 488.40433112 -0.41054066 472.80914876 -0.51812172 457.21214485 C-0.56942838 449.96813561 -0.63921981 442.72523228 -0.75439453 435.48193359 C-0.85487269 429.15981847 -0.91876869 422.83850497 -0.94088495 416.51561344 C-0.95379248 413.17459193 -0.98898842 409.8376575 -1.05730057 406.49704361 C-1.36808685 390.6552163 -0.57081535 378.86257974 8.7946291 365.72146416 C10.5474737 363.21811921 12.02135503 360.57157633 13.51171875 357.90625 C14.56856251 356.10313981 15.62716491 354.30105929 16.6875 352.5 C17.89116363 350.44562799 19.09426893 348.39092877 20.296875 346.3359375 C20.90595703 345.2953418 21.51503906 344.25474609 22.14257812 343.18261719 C25.25997193 337.8410891 28.34942542 332.48351626 31.4375 327.125 C32.05971436 326.04541016 32.68192871 324.96582031 33.32299805 323.85351562 C34.58511517 321.6631748 35.84707785 319.47274498 37.10888672 317.28222656 C40.23680148 311.85340058 43.36858448 306.42680719 46.5 301 C47.75001879 298.83334417 49.00001878 296.6666775 50.25 294.5 C117.75 177.50000001 117.75 177.50000001 119.62768555 174.24536133 C120.86875254 172.09416776 122.10980093 169.94296345 123.35083008 167.79174805 C126.26498344 162.74037001 129.17931818 157.6890969 132.09432983 152.63821411 C133.12673478 150.84933082 134.15907956 149.06041283 135.19140625 147.27148438 C136.48685948 145.02662364 137.7824257 142.7818281 139.078125 140.53710938 C139.95791016 139.0124707 139.95791016 139.0124707 140.85546875 137.45703125 C141.62346802 136.1263562 141.62346802 136.1263562 142.40698242 134.76879883 C144.27819334 131.51647652 146.13838577 128.25782491 148 125 C99.16 125 50.32 125 0 125 C0 83.75 0 42.5 0 0 Z " fill="#FF9933" transform="translate(256,4)"/>
<path d="M0 0 C3.78518732 1.4160506 7.19749321 3.15421065 10.69921875 5.16796875 C11.81248535 5.80613525 12.92575195 6.44430176 14.07275391 7.10180664 C15.27771682 7.79695534 16.4826309 8.4921887 17.6875 9.1875 C18.94434799 9.90968618 20.20134912 10.6316059 21.45849609 11.35327148 C24.68637148 13.20743067 27.91189349 15.06563953 31.13653564 16.92541504 C33.99525204 18.57392183 36.85518454 20.22031688 39.71484375 21.8671875 C43.99642341 24.33442305 48.27617756 26.80478905 52.5546875 29.27734375 C58.01590405 32.43328559 63.4816204 35.58129853 68.95166016 38.72192383 C71.1412339 39.98526412 73.32588138 41.25718319 75.50537109 42.5378418 C80.60829924 45.52973486 85.70059769 48.38560898 91.03125 50.953125 C106.19928083 58.52437271 112.37982357 67.9337113 119.57275391 83.06494141 C121.48319049 86.99365652 123.66711837 90.70922069 125.9375 94.4375 C126.73635533 95.78007365 127.53316598 97.12386563 128.328125 98.46875 C128.74771484 99.17773438 129.16730469 99.88671875 129.59960938 100.6171875 C132.49257617 105.53966936 135.33700052 110.49034913 138.1875 115.4375 C138.82550537 116.54472412 139.46351074 117.65194824 140.12084961 118.79272461 C141.42889477 121.06337068 142.73675448 123.33412358 144.04443359 125.60498047 C146.57382915 129.99621325 149.10620344 134.38572297 151.63916016 138.77490234 C152.87503739 140.91685173 154.11039302 143.05910216 155.34521484 145.20166016 C158.27078099 150.27690488 161.200696 155.34949194 164.14590454 160.4133606 C165.5354863 162.80315668 166.92262172 165.19436836 168.30957031 167.58569336 C169.28863253 169.27140589 170.27122606 170.95506587 171.25390625 172.63867188 C171.846875 173.66154297 172.43984375 174.68441406 173.05078125 175.73828125 C173.57325439 176.63587158 174.09572754 177.53346191 174.6340332 178.45825195 C175.9581544 180.92213502 177.01706574 183.38364731 178 186 C176.07049571 187.42174 174.14098154 188.84346657 172.21142578 190.26513672 C170.50260391 191.52435562 168.79394995 192.78380243 167.08544922 194.04345703 C162.80945203 197.19562944 158.53157466 200.34510516 154.24609375 203.484375 C144.91282603 210.32863995 135.67355265 217.28263285 126.48486328 224.31982422 C121.71275928 227.96470142 116.91284829 231.54732859 112 235 C104.94836548 239.96665604 98.11429336 245.2065212 91.28125 250.46875 C88.86370807 252.32559696 86.43712359 254.16895056 84 256 C83.38898438 256.46180664 82.77796875 256.92361328 82.1484375 257.39941406 C80.5625 258.5390625 80.5625 258.5390625 78 260 C74.04384518 258.68128173 73.69210053 257.19080883 71.69921875 253.578125 C71.38637939 253.01505646 71.07354004 252.45198792 70.7512207 251.87185669 C69.71881488 250.00379503 68.7021967 248.1277337 67.6875 246.25 C67.33507233 245.60363586 66.98264465 244.95727173 66.61953735 244.2913208 C54.22097219 221.53424401 43.23411308 198.23023142 34 174 C33.5452832 172.80745605 33.09056641 171.61491211 32.62207031 170.38623047 C13.05826383 118.4784822 -3.57424439 57.91498279 -1 2 C-0.67 1.34 -0.34 0.68 0 0 Z " fill="#FFC34D" transform="translate(1,68)"/>
<path d="M0 0 C38.29938272 0 38.29938272 0 49.5 1.1875 C50.85056865 1.3213822 52.20115527 1.45508315 53.55175781 1.58862305 C111.77312278 7.53106429 169.56209463 21.72126095 223.04492188 45.67822266 C226.10994693 47.04917818 229.18681419 48.39079329 232.265625 49.73046875 C234.26113112 50.61036064 236.25595412 51.49180385 238.25 52.375 C239.14976562 52.76776123 240.04953125 53.16052246 240.9765625 53.56518555 C246.0078554 55.83555647 249.94202879 58.2470397 254 62 C252.52014972 65.91137276 250.557491 67.14295403 246.93359375 69.1015625 C245.89984619 69.66866943 244.86609863 70.23577637 243.80102539 70.82006836 C242.69106201 71.4156958 241.58109863 72.01132324 240.4375 72.625 C238.13204635 73.88792533 235.82735927 75.15225102 233.5234375 76.41796875 C232.39776367 77.03333496 231.27208984 77.64870117 230.11230469 78.28271484 C226.2190352 80.43091516 222.38172353 82.6609717 218.5625 84.9375 C208.2575862 91.05453145 197.86332731 97.01605909 187.47851562 102.99609375 C183.91680423 105.04746236 180.35667597 107.10156839 176.796875 109.15625 C176.20845322 109.49586258 175.62003143 109.83547516 175.01377869 110.18537903 C172.18890916 111.81580862 169.36409557 113.44633508 166.53930664 115.0769043 C164.55644213 116.22107602 162.57285715 117.36400055 160.58837891 118.50537109 C158.98204251 119.43293112 157.37939541 120.36695074 155.78271484 121.31103516 C151.20923675 124 151.20923675 124 149 124 C148.67 124.66 148.34 125.32 148 126 C74.74 125.505 74.74 125.505 0 125 C0 83.75 0 42.5 0 0 Z " fill="#FFC24C" transform="translate(256,4)"/>
<path d="M0 0 C3.35695809 0.61518384 5.40255512 1.81867553 8.09765625 3.88671875 C8.88922119 4.48814697 9.68078613 5.0895752 10.49633789 5.70922852 C11.76658813 6.6884729 11.76658813 6.6884729 13.0625 7.6875 C14.87443416 9.06584832 16.68694787 10.44343507 18.5 11.8203125 C19.41910156 12.5205957 20.33820313 13.22087891 21.28515625 13.94238281 C25.34857684 17.02210482 29.45267545 20.04513326 33.5625 23.0625 C34.34262451 23.63653564 35.12274902 24.21057129 35.92651367 24.80200195 C39.83976907 27.68092739 43.75677953 30.55468474 47.67578125 33.42578125 C57.02239199 40.28210172 66.27799339 47.24415886 75.47998047 54.29345703 C81.62720283 58.98952426 87.85337112 63.54427485 94.1875 67.984375 C96.86869369 69.90589715 99.4449624 71.91463843 102 74 C100.3233835 78.76758548 97.81507627 82.89952505 95.1875 87.1875 C94.46651123 88.36530029 94.46651123 88.36530029 93.73095703 89.56689453 C88.26302424 98.36709525 82.18335239 106.69418737 76 115 C75.18722518 116.10135974 74.37469951 117.20290343 73.5625 118.3046875 C61.33670422 134.76584825 48.35509042 150.46173173 34.40185547 165.48486328 C32.9492546 167.05484604 31.50690908 168.63375773 30.06640625 170.21484375 C21.49759744 179.60112699 12.80442801 188.92146498 3.11328125 197.16796875 C0.94366965 199.04883352 -1.16448509 200.9889949 -3.26855469 202.94262695 C-8.36106304 207.6671283 -13.54928407 212.20276949 -18.96484375 216.55859375 C-21.24171933 218.39005737 -23.50222092 220.23569658 -25.75390625 222.09765625 C-33.64407539 228.60488344 -41.62718224 234.86633952 -50.05761719 240.65966797 C-51.46445223 241.63044781 -52.86541781 242.60975165 -54.26269531 243.59423828 C-56.66518902 245.28594949 -59.08080024 246.95728903 -61.5 248.625 C-62.25394043 249.15875244 -63.00788086 249.69250488 -63.78466797 250.24243164 C-64.50541504 250.73219482 -65.22616211 251.22195801 -65.96875 251.7265625 C-66.60232422 252.16564941 -67.23589844 252.60473633 -67.88867188 253.05712891 C-70.6574767 254.29361413 -72.9978542 254.06168486 -76 254 C-76.23483903 238.40433112 -76.41054066 222.80914876 -76.51812172 207.21214485 C-76.56942838 199.96813561 -76.63921981 192.72523228 -76.75439453 185.48193359 C-76.85487269 179.15981847 -76.91876869 172.83850497 -76.94088495 166.51561344 C-76.95379248 163.17459193 -76.98898842 159.8376575 -77.05730057 156.49704361 C-77.36808685 140.6552163 -76.57081535 128.86257974 -67.2053709 115.72146416 C-65.4525263 113.21811921 -63.97864497 110.57157633 -62.48828125 107.90625 C-61.43143749 106.10313981 -60.37283509 104.30105929 -59.3125 102.5 C-58.10883637 100.44562799 -56.90573107 98.39092877 -55.703125 96.3359375 C-55.09404297 95.2953418 -54.48496094 94.25474609 -53.85742188 93.18261719 C-50.74002807 87.8410891 -47.65057458 82.48351626 -44.5625 77.125 C-43.94028564 76.04541016 -43.31807129 74.96582031 -42.67700195 73.85351562 C-41.41488483 71.6631748 -40.15292215 69.47274498 -38.89111328 67.28222656 C-35.76319853 61.8534006 -32.63143954 56.42679331 -29.5 51 C-25.99355517 44.92283836 -22.48725299 38.84559527 -18.98303223 32.76715088 C-17.97380896 31.01658759 -16.96446164 29.26609589 -15.95507812 27.515625 C-14.6983234 25.33607835 -13.44179414 23.15640168 -12.18554688 20.9765625 C-8.14583558 13.97138717 -4.0806316 6.98141493 0 0 Z " fill="#FFC34C" transform="translate(332,254)"/>
<path d="M0 0 C48.84 0 97.68 0 148 0 C146.54877547 3.62806134 145.12455815 6.74228784 143.234375 10.11328125 C142.68144775 11.10126709 142.12852051 12.08925293 141.55883789 13.10717773 C140.96192139 14.16493408 140.36500488 15.22269043 139.75 16.3125 C139.12665771 17.42117432 138.50331543 18.52984863 137.86108398 19.67211914 C132.52126695 29.13940877 127.05876975 38.53299965 121.5625 47.91015625 C117.8678671 54.21570384 114.21143086 60.54292025 110.5625 66.875 C109.94213867 67.95152832 109.32177734 69.02805664 108.68261719 70.13720703 C107.42305731 72.32333594 106.16361766 74.50953413 104.90429688 76.69580078 C102.98493338 80.02614252 101.06317647 83.35509148 99.140625 86.68359375 C93.40707941 96.61104751 87.68072764 106.54221011 82 116.5 C72.18120136 133.70816964 62.2628483 150.85824287 52.26782227 167.96459961 C46.10125075 178.52536152 39.99527725 189.12085666 33.89111328 199.71777344 C32.01051894 202.98174327 30.12859454 206.24494189 28.24609375 209.5078125 C27.31724365 211.117771 27.31724365 211.117771 26.36962891 212.76025391 C25.13136204 214.90595791 23.89275975 217.05146838 22.65380859 219.19677734 C19.71293713 224.29041321 16.77636404 229.38639383 13.85409546 234.49072266 C12.46781169 236.9115662 11.07921453 239.33107889 9.69042969 241.75048828 C8.70671796 243.46647617 7.72637165 245.18439193 6.74609375 246.90234375 C6.153125 247.93488281 5.56015625 248.96742188 4.94921875 250.03125 C4.42674561 250.94455078 3.90427246 251.85785156 3.3659668 252.79882812 C2 255 2 255 0 257 C0 172.19 0 87.38 0 0 Z " fill="#FFE565" transform="translate(256,129)"/>
</svg>
